<svg width="206" height="211" viewBox="0 0 206 211" xmlns="http://www.w3.org/2000/svg">
  <title>Smith &amp; Willis</title>
  <path d="M198.002 127.267C197.044 130.049 196.305 132.245 195.53 134.434C194.649 136.931 193.71 139.405 192.845 141.904C191.873 144.716 190.971 147.552 190.006 150.367C189.717 151.208 189.329 152.015 188.951 152.822C188.549 153.686 188.132 154.54 187.685 155.38C186.908 156.85 186.109 158.307 185.305 159.764C184.919 160.467 184.473 161.14 184.106 161.85C182.817 164.348 180.975 166.471 179.444 168.806C178.214 170.676 176.844 172.432 175.276 174.023C173.017 176.314 170.614 178.427 167.925 180.224C166.697 181.044 165.618 182.095 164.512 183.084C163.084 184.357 161.652 185.645 159.851 186.338C157.748 187.146 156.057 188.498 154.421 189.983C153.81 190.539 153.092 190.983 152.424 191.475C149.886 193.354 147.175 194.964 144.413 196.477C141.834 197.891 139.233 199.268 136.64 200.66C136.405 200.784 136.158 200.892 135.922 201.016C134.873 201.574 133.839 202.159 132.768 202.679C131.891 203.104 130.976 203.458 130.067 203.824C128.853 204.312 127.644 204.823 126.41 205.256C123.381 206.314 120.343 207.356 117.154 207.874C115.189 208.191 113.232 208.589 111.301 209.062C110.015 209.377 108.729 209.63 107.426 209.536C105.916 209.423 104.458 209.678 103.002 209.943C101.937 210.137 100.878 210.227 99.8096 210.1C97.6123 209.834 95.4146 210.014 93.2146 210.023C90.8092 210.031 88.3986 210.028 86.0001 209.863C83.0667 209.663 80.1425 209.322 77.2223 208.982C76.0733 208.849 74.9468 208.549 73.8092 208.319C72.0329 207.961 70.2539 207.611 68.4791 207.237C67.5479 207.043 66.6128 206.848 65.7019 206.583C63.1899 205.845 60.6725 205.123 58.1929 204.291C56.0824 203.582 54.0217 202.728 51.9315 201.948C50.325 201.351 48.9303 200.381 47.493 199.483C45.6525 198.333 43.8212 197.169 42.0286 195.944C40.9314 195.189 39.9232 194.304 38.8712 193.482C38.5673 193.247 38.2635 192.998 37.9224 192.819C37.1489 192.421 36.4191 191.973 35.8776 191.27C35.8039 191.179 35.7105 191.095 35.613 191.035C34.0591 190.145 33.0184 188.706 31.7595 187.494C30.8235 186.59 29.8029 185.766 28.8232 184.912C28.7999 184.891 28.7686 184.88 28.7544 184.858C27.8816 183.642 26.5872 182.851 25.6101 181.736C24.5319 180.507 23.4089 179.319 22.3281 178.098C21.1269 176.744 19.8898 175.443 19.0159 173.811C17.9619 171.851 16.6817 170.014 15.5356 168.106C15.1544 167.471 14.847 166.787 14.5409 166.113C14.1989 165.352 13.9384 164.558 13.5687 163.813C13.0722 162.802 12.4757 161.84 11.9725 160.835C11.2717 159.425 10.6025 158 9.94519 156.566C9.52232 155.646 9.177 154.691 8.74618 153.781C8.49228 153.247 8.13184 152.769 7.824 152.265C6.09412 149.433 5.11685 146.322 4.45344 143.1C3.59012 138.907 2.73597 134.714 1.90935 130.517C1.63124 129.112 1.52606 127.689 1.69055 126.257C1.71191 126.081 1.73987 125.898 1.72062 125.725C1.53948 123.772 1.38586 121.815 1.1536 119.871C0.820095 117.038 0.407942 114.218 0.189766 111.368C0.027545 109.221 0.0273585 107.098 0.16341 104.961C0.243299 103.75 0.31132 102.548 0.311477 101.327C0.310858 99.9173 0.708067 98.5091 0.867168 97.0934C1.07084 95.2685 1.59465 93.4925 1.55925 91.6247C1.51839 89.3786 2.06317 87.1984 2.57909 85.0258C3.43499 81.4079 4.31963 77.7954 5.22775 74.191C5.56684 72.8372 5.98689 71.5026 6.41084 70.1692C7.61242 66.3989 8.8596 62.6486 10.0455 58.8729C10.8844 56.1944 12.1286 53.6861 13.189 51.1013C13.8996 49.3677 14.6414 47.6449 15.4015 45.9327C15.7976 45.0362 16.281 44.1786 16.6967 43.2888C17.0108 42.6179 17.2728 41.9203 17.5726 41.2401C17.9313 40.427 18.2094 39.5555 18.6943 38.8209C19.7634 37.2151 20.9353 35.6797 22.0721 34.1191C22.7367 33.2056 23.4103 32.3039 24.0774 31.3957C24.2353 31.1787 24.3633 30.9339 24.5497 30.7486C25.4786 29.8298 26.4296 28.9361 27.3586 28.0174C28.055 27.3293 28.7345 26.6266 29.4011 25.9107C30.5781 24.6528 31.7149 23.3592 32.9114 22.1211C33.8421 21.1591 34.8168 20.2474 35.8032 19.3396C36.2589 18.9188 36.7857 18.5706 37.2763 18.188C38.2139 17.4604 39.1489 16.7275 40.0865 15.9999C41.7757 14.6907 43.3874 13.2761 45.358 12.3701C45.7839 12.1753 46.1405 11.8386 46.537 11.5768C48.1556 10.5234 49.5187 9.10636 51.2935 8.28615C51.9429 7.98889 52.6089 7.73235 53.2711 7.46139C53.4091 7.40384 53.5793 7.39242 53.681 7.3005C54.8418 6.22957 56.3794 6.09803 57.7865 5.67207C59.4299 5.1699 61.1328 4.8633 62.7801 4.36247C66.2952 3.29231 69.9272 2.84883 73.5195 2.17726C75.5071 1.8067 77.4772 1.34699 79.461 0.961997C79.9776 0.859735 80.5167 0.870237 81.047 0.842703C81.3992 0.823899 81.7589 0.847045 82.1139 0.807329C84.3634 0.553186 86.621 0.542533 88.8797 0.681083C91.5203 0.841687 94.1614 0.963036 96.7961 1.19163C101.088 1.56598 105.387 1.95611 109.614 2.83368C111.816 3.28968 114.006 3.82016 116.209 4.27225C118.449 4.73255 120.705 5.13281 122.949 5.56829C123.298 5.63582 123.633 5.76866 123.971 5.88058C127.148 6.97428 130.328 8.07324 133.509 9.1552C133.951 9.3074 134.431 9.35005 134.893 9.45664C135.272 9.53886 135.656 9.60543 136.016 9.72935C140.35 11.2126 144.694 12.6815 149.009 14.2195C150.179 14.6353 151.259 15.3002 152.388 15.8203C154.035 16.5797 155.706 17.2818 157.334 18.0698C158.351 18.5601 159.326 19.1362 160.283 19.7371C160.859 20.0974 161.364 20.5643 161.895 20.9922C162.378 21.3817 162.824 21.8284 163.338 22.1671C164.621 23.0159 165.715 24.1232 167.181 24.733C167.919 25.0438 168.522 25.6936 169.166 26.2129C169.578 26.5428 169.948 26.9285 170.354 27.2741C171.485 28.2365 172.577 29.2601 173.775 30.1277C175.848 31.6333 177.777 33.2998 179.737 34.9417C181.229 36.1904 182.539 37.5956 183.732 39.1267C184.315 39.8744 185.008 40.5329 185.628 41.2495C186.718 42.5047 187.849 43.7342 188.863 45.0462C190.189 46.7631 191.341 48.5908 192.292 50.5592C193.26 52.5644 194.402 54.4849 195.413 56.4695C196.639 58.883 197.735 61.3566 198.697 63.8891C199.076 64.8861 199.565 65.8423 199.994 66.8215C200.103 67.0646 200.237 67.312 200.28 67.5676C200.578 69.4733 201.428 71.1881 202.113 72.9602C202.703 74.4893 203.199 76.0214 203.305 77.6857C203.41 79.2755 203.716 80.8515 203.956 82.4308C204.572 86.4898 205.259 90.5338 205.173 94.6618C205.134 96.4255 204.92 98.1548 204.609 99.8858C204.313 101.521 204.135 103.18 203.856 104.817C203.264 108.281 202.507 111.701 201.504 115.071C200.903 117.097 200.447 119.159 199.858 121.188C199.213 123.417 198.493 125.624 197.99 127.25L198.002 127.267ZM128.068 22.2542C126.914 21.8569 125.747 21.4947 124.612 21.0557C121.07 19.6967 117.406 18.7985 113.674 18.1705C113 18.0566 112.322 17.9675 111.652 17.8419C109.931 17.5123 108.226 17.0873 106.495 16.8544C104.892 16.6399 103.34 16.2936 101.797 15.8414C101.094 15.6343 100.346 15.5433 99.6142 15.4707C98.61 15.3745 97.6027 15.3385 96.5928 15.2972C96.2998 15.2838 96.0086 15.3543 95.7126 15.3749C95.3682 15.3964 95.0156 15.4545 94.6771 15.408C92.8199 15.1582 90.9612 14.9385 89.0809 15.1753C88.6105 15.2322 88.1327 15.2472 87.6578 15.2282C85.8774 15.1623 84.0945 15.0782 82.3155 14.9953C80.7078 14.9234 79.1326 15.0114 77.5719 15.4895C74.6987 16.3604 71.7686 17.028 68.795 17.4661C68.5054 17.5065 68.2151 17.6123 67.9495 17.7353C66.8992 18.2184 65.8783 18.7686 64.8087 19.2057C63.3779 19.7898 61.8958 20.2556 60.4663 20.8357C59.3968 21.2728 58.354 21.7848 57.3254 22.3192C56.7506 22.6158 56.2336 23.0243 55.6896 23.3841C55.4169 23.566 55.1366 23.7321 54.8704 23.9205C53.6883 24.7609 52.5127 25.6079 51.3306 26.4483C50.6057 26.9647 49.8318 27.4204 49.1678 28.0015C48.298 28.7612 47.5175 29.6173 46.6956 30.4285C46.5687 30.5555 46.4238 30.6588 46.2943 30.7805C45.6536 31.3959 45.0168 32.0126 44.3747 32.6319C44.2043 32.7964 44.0403 32.9676 43.8699 33.1321C43.1368 33.8251 42.4012 34.5128 41.672 35.2071C41.1331 35.7175 40.5916 36.2225 40.0709 36.7435C39.8025 37.0144 39.5185 37.293 39.3229 37.6196C38.4447 39.1029 37.6589 40.6355 37.0567 42.2576C36.9371 42.5797 36.7001 42.8614 36.4971 43.146C36.2582 43.4839 35.9725 43.7926 35.7519 44.1412C35.3359 44.7901 35.0109 45.5054 34.543 46.1146C33.2665 47.7759 32.2154 49.5454 31.3916 51.4808C30.4461 53.6937 29.3676 55.8477 28.3269 58.0191C27.9542 58.7967 27.519 59.5397 27.1359 60.3094C26.7661 61.053 26.3637 61.7898 26.0865 62.5697C24.8293 66.1327 23.6113 69.7092 22.3855 73.283C22.298 73.5373 22.1829 73.7953 22.1764 74.0557C22.1473 75.0303 21.7631 75.9047 21.4586 76.8021C20.9978 78.1534 20.4809 79.4897 20.0802 80.8573C19.6268 82.3906 19.056 83.8834 18.793 85.4866C18.4563 87.5327 17.9991 89.5855 17.3283 91.5472C16.539 93.8401 16.44 96.2 16.2037 98.552C15.9964 100.616 15.9223 102.7 15.8131 104.772C15.7908 105.18 15.8521 105.6 15.9175 106.007C16.0297 106.711 16.2284 107.405 16.3013 108.109C16.4567 109.615 16.5846 111.126 16.6693 112.634C16.8343 115.575 17.226 118.48 17.8862 121.355C18.1537 122.511 18.366 123.687 18.497 124.87C18.7675 127.326 19.1468 129.759 19.8184 132.143C19.9145 132.487 19.987 132.836 20.0411 133.187C20.3381 135.07 20.8201 136.899 21.6302 138.64C21.7878 138.983 21.8311 139.379 21.9164 139.754C22.0946 140.533 22.265 141.309 22.4432 142.089C22.4884 142.288 22.548 142.483 22.5892 142.681C22.7168 143.29 22.7523 143.937 22.9771 144.504C23.7602 146.463 24.6103 148.393 25.4341 150.335C25.7245 151.017 26.0135 151.703 26.2987 152.388C26.7246 153.401 27.0926 154.442 27.5816 155.424C28.525 157.312 29.5368 159.165 30.5329 161.027C30.7269 161.391 30.9907 161.718 31.211 162.07C31.7665 162.948 32.3995 163.792 32.8445 164.724C33.9359 167.008 35.4636 168.965 37.1256 170.837C37.6356 171.415 38.201 171.947 38.7294 172.51C39.377 173.196 40.0206 173.895 40.6603 174.592C41.7195 175.749 42.5303 177.144 43.8682 178.038C44.4091 178.399 45.0467 178.632 45.5334 179.049C46.6677 180.026 47.9295 180.797 49.1926 181.578C50.3296 182.28 51.4173 183.061 52.5755 183.727C54.3206 184.734 55.9937 185.875 57.8745 186.654C58.5562 186.936 59.1522 187.417 59.8231 187.731C61.8984 188.695 63.9669 189.679 66.0864 190.54C68.0599 191.341 70.01 192.262 72.1888 192.417C72.4242 192.432 72.6564 192.508 72.878 192.589C73.7478 192.91 74.617 193.157 75.5657 193.159C76.1873 193.159 76.8037 193.301 77.4218 193.387C79.2136 193.636 80.9931 193.933 82.7905 194.141C84.967 194.391 87.1196 194.012 89.2896 194.115C91.27 194.211 93.2646 194.061 95.254 194.041C96.5013 194.029 97.7542 194.114 98.9981 194.048C101.363 193.917 103.698 193.477 106.092 193.579C108.401 193.674 110.645 193.042 112.809 192.36C114.596 191.798 116.41 191.346 118.185 190.753C119.283 190.387 120.373 189.992 121.471 189.613C122.425 189.28 123.364 188.894 124.34 188.639C125.994 188.207 127.55 187.552 129.03 186.722C130.403 185.952 131.698 185.037 133.094 184.314C134.703 183.48 136.099 182.297 137.755 181.542C138.383 181.255 138.868 180.66 139.453 180.257C141.167 179.079 142.899 177.925 144.629 176.765C145.123 176.436 145.665 176.172 146.132 175.808C148.217 174.175 150.269 172.51 152.35 170.876C153.519 169.961 154.743 169.113 155.9 168.181C157.426 166.951 158.929 165.687 160.41 164.398C161.376 163.562 162.281 162.661 163.217 161.798C164.135 160.95 165.013 160.052 165.994 159.287C166.899 158.579 167.671 157.773 168.283 156.819C169.437 155.019 170.554 153.198 171.685 151.386C172.047 150.806 172.433 150.243 172.77 149.646C173.653 148.098 174.536 146.551 175.381 144.986C175.647 144.492 175.693 143.864 176.015 143.423C176.733 142.432 177.072 141.306 177.447 140.179C178.79 136.111 180.173 132.058 181.5 127.985C181.979 126.517 182.409 125.028 182.773 123.526C183.285 121.413 183.78 119.303 184.68 117.311C184.788 117.073 184.834 116.799 184.897 116.541C185.043 115.939 185.185 115.336 185.315 114.729C185.493 113.919 185.692 113.112 185.824 112.296C185.976 111.359 185.966 110.384 186.209 109.474C187.319 105.269 187.551 100.973 187.723 96.6597C187.799 94.7603 187.82 92.855 187.993 90.967C188.154 89.2019 188.077 87.4684 187.796 85.7304C187.649 84.822 187.426 83.9182 187.37 83.0015C187.211 80.435 186.807 77.9367 185.92 75.5044C185.393 74.0584 185.024 72.5485 184.647 71.0529C184.332 69.8066 183.943 68.5962 183.367 67.4481C183.169 67.0561 183.087 66.6078 182.954 66.1812C182.655 65.2164 182.402 64.2363 182.053 63.2933C181.107 60.74 179.55 58.4974 178.203 56.1561C177.053 54.1583 175.561 52.3495 174.203 50.4726C173.766 49.8716 173.289 49.3003 172.777 48.7653C171.788 47.7375 170.753 46.7511 169.755 45.7336C168.568 44.5285 167.389 43.313 166.223 42.0846C165.67 41.5046 165.201 40.8352 164.604 40.3059C163.449 39.287 162.253 38.3108 161.027 37.3723C159.35 36.0904 157.6 34.9059 155.68 33.9999C154.554 33.468 153.434 32.9205 152.317 32.3652C151.625 32.0221 150.965 31.6152 150.262 31.2903C149.373 30.8746 148.464 30.5137 147.558 30.1319C146.409 29.6443 145.262 29.162 144.111 28.6783C142.685 28.078 141.246 27.517 139.843 26.8633C137.579 25.8125 135.373 24.642 132.966 23.9183C131.316 23.4206 129.698 22.8067 128.067 22.245L128.068 22.2542Z" />
  <path d="M120.805 132.695C120.178 134.199 119.329 136.423 118.333 138.579C116.801 141.899 115.139 145.152 113.772 148.55C112.986 150.503 111.923 152.343 110.988 154.235C110.802 154.609 110.613 154.981 110.47 155.37C110.287 155.876 110.448 156.26 110.886 156.502C111.454 156.82 112.277 156.745 112.803 156.322C113.546 155.728 114.27 155.111 115.035 154.543C115.68 154.069 116.336 153.586 117.044 153.221C118.942 152.246 120.49 150.788 122.233 149.602C123.337 148.849 124.394 148.027 125.518 147.306C127.65 145.944 129.798 144.609 131.686 142.913C133.079 141.664 134.413 140.346 135.787 139.073C137.117 137.842 138.469 136.635 139.811 135.421C139.875 135.36 139.963 135.32 140.014 135.25C141.413 133.359 143.411 132.03 144.77 130.077C146.107 128.152 147.605 126.344 149.026 124.479C149.457 123.913 149.832 123.307 150.292 122.77C150.736 122.257 151.217 121.762 151.751 121.342C152.98 120.378 154.428 120.382 155.834 120.708C157.371 121.062 158.866 121.625 160.114 122.628C161.592 123.815 163.089 125.009 164.216 126.565C164.948 127.579 165.271 128.753 165.362 129.988C165.406 130.585 165.143 131.081 164.802 131.55C163.168 133.819 161.566 136.108 159.896 138.352C158.92 139.662 157.824 140.877 156.827 142.171C155.847 143.44 154.952 144.769 153.979 146.044C153.117 147.174 152.232 148.296 151.295 149.366C148.917 152.079 145.924 154.138 143.451 156.758C141.163 159.182 138.472 161.075 135.573 162.694C134.538 163.274 133.552 163.95 132.571 164.614C129.516 166.675 126.279 168.462 123.347 170.713C122.384 171.45 121.295 172.033 120.233 172.626C118.57 173.555 116.928 174.508 115.487 175.771C115.179 176.042 114.799 176.244 114.43 176.427C111.411 177.9 108.389 179.368 105.36 180.82C105.018 180.986 104.633 181.112 104.257 181.149C102.482 181.334 100.881 182.057 99.2481 182.694C97.9488 183.201 96.6037 183.587 95.2967 184.078C94.1317 184.513 92.9857 185.007 91.8346 185.49C90.6519 185.989 89.4642 186.464 88.1366 186.252C88.0491 186.24 87.9537 186.224 87.871 186.248C86.5157 186.6 85.2889 186.121 84.0553 185.675C83.7201 185.555 83.3758 185.436 83.0242 185.39C82.393 185.304 82.0141 184.968 81.7684 184.397C81.3936 183.515 81.2646 182.657 81.6349 181.721C82.0763 180.617 82.3599 179.45 82.8234 178.357C83.7666 176.113 84.7829 173.898 85.7717 171.674C86.2186 170.668 86.7151 169.684 87.1033 168.658C87.6501 167.209 88.2997 165.818 88.9951 164.433C89.7958 162.844 90.4495 161.174 91.0795 159.509C91.9621 157.174 92.7183 154.787 93.6166 152.457C94.1725 151.02 94.8717 149.637 95.5475 148.246C95.9549 147.406 95.6661 146.821 94.7346 146.793C94.418 146.785 94.0734 146.833 93.7791 146.95C91.7097 147.787 89.7473 148.797 88.0523 150.301C87.3711 150.907 86.5784 151.404 85.795 151.887C83.9807 153 82.5493 154.577 80.8503 155.826C79.9895 156.458 79.0965 157.043 78.2061 157.634C75.0817 159.705 72.0916 161.958 69.2397 164.395C68.7435 164.819 68.2434 165.242 67.711 165.619C65.9042 166.901 64.4629 168.558 62.9892 170.182C62.0685 171.191 61.2243 172.27 60.3101 173.286C59.4024 174.295 58.3628 175.154 56.9914 175.413C55.4994 175.692 53.9987 175.919 52.6079 174.95C51.7851 174.378 50.8695 173.936 50.0414 173.366C48.7961 172.509 48.3863 171.182 48.1371 169.77C47.7374 167.549 48.4599 165.526 49.2737 163.544C49.5726 162.815 50.118 162.184 50.5837 161.531C51.4966 160.252 52.4082 158.964 53.3731 157.725C53.8435 157.121 54.3986 156.564 54.9936 156.081C56.4248 154.924 57.4847 153.46 58.5721 152.004C59.0335 151.389 59.5157 150.789 60.0019 150.19C60.6774 149.359 61.3516 148.532 62.0427 147.72C62.792 146.84 63.5854 145.997 64.3153 145.097C65.4015 143.76 66.6375 142.496 67.4594 141.011C68.4387 139.234 69.678 137.63 70.631 135.853C71.5841 134.076 72.7051 132.396 73.4304 130.492C74.4484 127.827 75.6124 125.221 76.6461 122.562C77.3253 120.817 77.8729 119.023 78.4948 117.255C79.1651 115.346 79.8316 113.435 80.5398 111.543C80.7334 111.019 80.9925 110.482 81.3524 110.072C82.1147 109.205 82.5372 108.156 83.0886 107.177C83.363 106.685 83.6517 106.203 83.9794 105.746C84.4942 105.026 85.1011 104.382 85.6083 103.646C86.1832 102.802 87.0415 102.153 88.018 101.718C89.6807 100.982 91.328 100.214 93.2262 100.421C94.5047 100.56 95.6221 101.115 96.6836 101.769C97.0335 101.986 97.2001 102.481 97.4821 102.819C98.9361 104.558 99.108 106.652 99.1447 108.783C99.1551 109.465 99.1209 110.149 99.1365 110.828C99.1661 112.09 99.0037 113.299 98.4297 114.458C98.0371 115.255 97.7787 116.12 97.5048 116.967C96.9328 118.718 96.4195 120.489 95.8279 122.232C95.4303 123.413 94.9427 124.562 94.4943 125.725C94.4191 125.918 94.3348 126.112 94.2713 126.309C93.7749 127.828 94.8195 129.142 96.4097 128.857C97.3601 128.69 98.2877 128.309 99.1788 127.92C100.209 127.469 101.165 126.892 102.003 126.087C102.59 125.523 103.427 125.229 104.085 124.729C105.336 123.777 106.527 122.747 107.764 121.772C109.068 120.742 110.283 119.602 111.728 118.747C114.164 117.305 116.616 117.287 119.114 118.537C119.274 118.618 119.426 118.71 119.587 118.791C120.399 119.189 121.089 119.702 121.573 120.508C121.998 121.219 122.654 121.794 122.851 122.633C122.95 123.056 123.033 123.514 122.987 123.94C122.909 124.675 122.765 125.413 122.58 126.128C122.073 128.085 121.525 130.032 120.795 132.713L120.805 132.695Z" />
  <path d="M42.5047 62.0066C44.109 62.5588 45.7107 63.1058 47.3136 63.662C48.1001 63.9327 48.5132 64.5126 48.5824 65.3285C48.615 65.7424 48.5939 66.1597 48.5898 66.5784C48.5668 69.4677 48.7808 72.3424 49.4535 75.1561C49.8168 76.6816 50.2008 78.223 51.2183 79.5011C51.5118 79.8691 51.7733 80.2917 51.9378 80.7291C52.5348 82.3132 53.8883 83.0855 55.2516 83.7911C57.2425 84.8222 59.4252 85.1052 61.6343 85.2354C61.99 85.2572 62.3436 85.3615 62.6971 85.3518C65.3856 85.297 67.7362 84.3424 69.7698 82.6047C70.0444 82.3666 70.243 81.9929 70.3721 81.6435C70.8938 80.2169 71.4351 78.797 71.8615 77.342C72.4179 75.4459 72.1667 73.5695 71.0332 71.9801C70.3773 71.0629 69.3446 70.4141 68.4792 69.648C67.5216 68.8063 66.5415 67.9919 65.6104 67.1243C64.5456 66.1363 63.4783 65.143 62.4941 64.0734C61.6149 63.1186 60.6024 62.2712 60.007 61.064C59.3795 59.7845 58.6036 58.5677 58.0668 57.2538C57.3255 55.4406 56.7419 53.5635 56.0925 51.7119C56.0517 51.6016 56.0372 51.4784 56.02 51.3631C55.7798 49.5691 55.4688 47.7771 55.332 45.9751C55.2672 45.1081 55.5415 44.2222 55.626 43.341C55.8447 41.0529 56.6532 38.9329 57.6701 36.9196C58.4548 35.3647 59.3063 33.8066 60.6852 32.6488C60.8211 32.5336 60.9428 32.3961 61.0929 32.3034C63.0056 31.1586 64.6862 29.6583 66.724 28.7098C66.8331 28.6598 66.9333 28.5849 67.0448 28.5533C68.7295 28.1091 70.1374 27.0576 71.7259 26.4096C72.852 25.9482 74.0164 25.5788 75.1501 25.1331C77.5792 24.1793 80.1309 23.7972 82.6962 23.503C84.3142 23.3159 85.9442 23.1199 87.5696 23.1148C88.682 23.1126 89.8583 23.2681 90.8883 23.6576C92.1152 24.1237 93.3804 24.4279 94.6171 24.8274C96.844 25.5415 98.8512 26.6394 100.828 27.8889C102.553 28.9815 103.801 30.339 104.728 32.1331C105.191 33.0275 105.983 33.7904 106.739 34.4927C108.186 35.8443 109.029 37.5041 109.51 39.3854C109.597 39.7305 109.687 40.0807 109.829 40.4054C110.633 42.2271 111.453 44.041 112.266 45.8615C112.869 47.2114 113.025 48.6656 113.197 50.112C113.256 50.6138 113.282 51.1219 113.267 51.6242C113.227 52.7703 112.733 53.6331 111.604 54.0146C110.083 54.5285 108.564 55.0515 107.021 55.4918C106.287 55.7032 105.499 55.7164 104.744 55.8635C104.196 55.9681 103.628 56.0659 103.135 56.3032C102.089 56.8007 100.994 57.019 99.8561 57.0563C98.7905 57.0878 98.0549 56.5676 97.6482 55.6004C97.0253 54.1169 96.4406 52.6245 96.1 51.0455C96.0888 50.9891 96.075 50.9275 96.0494 50.8749C94.7875 48.3617 93.944 45.6249 92.1019 43.424C91.785 43.0479 91.3789 42.6893 90.9399 42.4769C89.5174 41.8034 88.0642 41.1938 86.6176 40.5777C84.7539 39.7873 82.7949 39.7826 80.8341 39.961C79.3435 40.0956 78.1852 40.9048 77.1246 41.9008C75.8302 43.1184 75.4619 44.7859 75.0943 46.375C74.8619 47.3935 75.0063 48.5505 75.6023 49.5653C76.1739 50.5367 76.6033 51.5904 77.1472 52.5786C78.0988 54.3022 79.3534 55.8195 80.5857 57.3378C81.465 58.4195 82.3944 59.4703 83.3635 60.4691C84.1486 61.2777 85.0607 61.9593 85.863 62.7563C87.1721 64.0516 88.4745 65.3533 89.711 66.7199C90.5512 67.6481 91.1636 68.7298 91.3919 70.0119C91.6784 71.6205 92.0686 73.2078 92.3513 74.815C92.6824 76.6883 92.4762 78.508 91.9738 80.3614C91.3738 82.5751 90.8716 84.8093 89.9155 86.9004C89.4862 87.8424 88.9553 88.7362 88.4739 89.6515C88.3766 89.8325 88.2637 90.008 88.1728 90.1956C87.0767 92.4136 85.4947 94.2761 83.7402 95.9654C82.4971 97.1612 80.9646 97.9641 79.3124 98.5683C78.2565 98.9532 77.2504 99.4603 76.1346 99.6758C74.6189 99.9724 73.1045 100.265 71.5913 100.567C70.0034 100.883 68.3999 100.786 66.7953 100.807C66.0872 100.817 65.3792 100.954 64.6719 101.012C63.3007 101.118 61.9446 101.015 60.5926 100.759C60.0414 100.657 59.4644 100.642 58.9079 100.67C57.4611 100.74 56.0745 100.548 54.7268 99.9874C53.5747 99.5076 52.3742 99.1425 51.1979 98.7201C49.5783 98.1363 47.9544 97.5773 46.4541 96.6976C45.6136 96.2026 44.6826 95.8559 43.8127 95.4077C42.5041 94.734 41.3703 93.8448 40.5001 92.6349C40.278 92.3265 40.0062 92.0228 39.6942 91.8104C38.9608 91.3216 38.3792 90.71 37.8943 89.9829C37.6802 89.6641 37.4293 89.3502 37.1293 89.1156C35.7125 87.9933 34.8426 86.4903 34.0873 84.8955C33.8091 84.3052 33.4664 83.7496 33.1777 83.1644C32.9814 82.7686 32.7904 82.3571 32.6597 81.9357C31.7624 79.0754 31.6469 76.169 32.0331 73.2034C32.2637 71.4402 32.2263 69.6417 32.3771 67.8686C32.5277 66.1217 32.7083 64.3764 32.9883 62.6477C33.2293 61.1464 34.8595 59.9833 36.3932 60.1304C37.0077 60.1888 37.608 60.3648 38.2139 60.4989C38.3889 60.5373 38.5504 60.6148 38.7186 60.6727C39.9864 61.1091 41.2503 61.5442 42.518 61.9806L42.5113 62.0001L42.5047 62.0066Z" />
  <path d="M155.637 66.3273C155.796 66.0671 155.968 65.8594 156.058 65.6234C156.567 64.2975 157.178 63.0066 157.113 61.5179C157.077 60.7573 157.625 60.3465 158.357 60.5591C158.917 60.7255 159.468 60.9939 159.964 61.3089C160.399 61.5815 160.522 62.0787 160.415 62.5802C160.175 63.7098 159.937 64.8447 159.645 65.9608C159.399 66.9046 159.077 67.8266 158.777 68.7869C159.117 69.1226 159.412 69.4082 159.732 69.7241C160.037 69.6407 160.345 69.5194 160.663 69.4754C161.099 69.4155 161.584 69.2894 161.98 69.4123C163.347 69.8393 164.76 69.98 166.161 70.2083C166.944 70.3377 167.614 70.7172 168.123 71.3477C168.479 71.7896 168.563 72.4749 168.311 72.9396C168.031 73.4603 167.558 73.5997 167.024 73.512C166.382 73.405 165.722 73.3134 165.119 73.0838C164.055 72.6781 163.022 72.8696 161.874 73.039C161.955 73.4127 162.046 73.7199 162.082 74.0343C162.168 74.7379 162.289 75.4444 162.283 76.1471C162.273 77.0147 161.763 77.5306 160.866 77.5545C159.854 77.5826 158.868 77.6632 157.882 77.9101C156.866 78.1645 156.155 79.1234 156.326 80.1537C156.384 80.5063 156.428 80.8626 156.53 81.2C156.594 81.41 156.713 81.6349 156.879 81.7753C158.083 82.7934 159.317 83.7346 160.842 84.2861C162.021 84.7138 162.995 85.5347 163.925 86.38C165.088 87.437 166.265 88.4811 167.372 89.5886C167.779 89.9956 168.028 90.5673 168.319 91.0832C169.09 92.4556 169.871 93.823 170.592 95.2225C171.559 97.1047 172.258 99.0915 172.821 101.132C172.946 101.582 173.212 101.993 173.389 102.431C173.571 102.869 173.771 103.306 173.889 103.762C174.12 104.656 173.696 105.302 172.778 105.428C172.411 105.477 171.996 105.435 171.645 105.31C169.685 104.609 167.741 103.874 165.793 103.138C164.795 102.759 163.8 102.368 162.817 101.956C162.327 101.752 161.869 101.467 161.383 101.252C160.105 100.694 158.805 100.185 157.541 99.5968C156.93 99.3121 156.382 98.8827 155.805 98.5263C155.465 98.3175 155.115 98.127 154.691 97.8846C154.844 98.9265 154.982 99.823 155.115 100.722C155.128 100.81 155.151 100.896 155.159 100.987C155.237 101.906 154.746 102.276 153.896 101.935C153.762 101.88 153.621 101.805 153.515 101.708C152.216 100.534 150.925 99.3541 149.633 98.1741C148.421 97.0656 147.839 95.5393 147.026 94.165C146.816 93.8083 146.664 93.4103 146.412 93.0872C146.294 92.933 146.012 92.9014 145.805 92.817C145.727 93.0177 145.574 93.2191 145.579 93.422C145.591 94.1 145.681 94.7788 145.689 95.4554C145.692 95.7368 145.63 96.0568 145.488 96.2923C143.908 98.9126 142.309 101.522 140.711 104.132C140.401 104.638 140.087 105.142 139.738 105.622C139.063 106.554 138.015 106.635 137.014 106.632C136.209 106.63 135.805 105.922 135.671 105.119C135.4 103.503 135.893 101.992 136.255 100.484C136.469 99.5949 137.1 98.7923 137.895 98.2256C138.752 97.615 139.224 96.8187 139.289 95.7645C139.309 95.4389 139.418 95.1219 139.455 94.7977C139.478 94.5781 139.445 94.3566 139.431 93.9796C138.891 94.3892 138.454 94.6806 138.065 95.0236C136.581 96.3335 134.825 97.2259 133.166 98.2697C131.835 99.1112 130.439 99.8475 129.074 100.634C127.192 101.715 125.144 102.287 123.008 102.581C122.485 102.65 121.934 102.815 121.443 102.716C120.019 102.427 119.115 101.442 118.619 100.138C118.027 98.5771 117.914 96.9454 118.344 95.3164C119.059 92.5909 120.51 90.3201 122.69 88.5407C124.758 86.8544 126.87 85.2182 128.961 83.557C129.118 83.4316 129.265 83.2852 129.508 83.0624C128.857 82.7904 128.309 82.5011 127.724 82.3305C127.136 82.1585 126.648 82.5464 126.157 82.802C125.763 83.0075 125.404 83.3129 124.984 83.4265C124.452 83.5718 123.863 83.6708 123.329 83.5923C122.813 83.5152 122.423 83.6305 121.982 83.8461C121.21 84.2193 120.425 84.5925 119.611 84.8463C118.401 85.2218 117.152 84.7306 116.479 83.7242C116.018 83.0405 116.029 82.4099 116.508 81.7432C117.262 80.6984 118.257 80.0079 119.487 79.6261C120.051 79.4484 120.59 79.1919 121.144 78.9801C122.001 78.6534 122.852 78.3163 123.718 78.0146C124.021 77.9089 124.353 77.8611 124.676 77.8368C125.512 77.7612 126.299 77.5464 127.067 77.1849C127.787 76.8464 128.55 76.5882 129.312 76.347C130.044 76.1134 130.225 75.716 129.753 75.1159C129.537 74.8403 129.258 74.6086 128.987 74.3795C128.107 73.6302 127.085 72.9986 126.359 72.1225C125.404 70.9668 124.534 69.7046 124.08 68.2266C123.909 67.6687 123.541 67.1482 123.787 66.4583C124.987 66.0133 126.114 66.4889 127.235 66.9448C127.829 67.1888 128.396 67.5019 129.194 67.8905C129.053 67.4089 129.017 67.1206 128.89 66.8799C128.223 65.5869 128.102 64.1449 127.726 62.7723C127.545 62.1149 127.433 61.4372 127.247 60.7824C126.838 59.3637 126.898 57.892 126.818 56.4465C126.726 54.7561 126.727 53.0627 126.759 51.3669C126.783 50.1671 127.045 49.0233 127.756 47.999C128.448 47.0072 129.653 46.7481 130.648 47.4802C131.27 47.9391 131.859 48.4395 132.471 48.9127C134.159 50.2248 135.847 51.5369 137.545 52.8347C138.786 53.7825 139.89 54.8455 140.68 56.2116C140.859 56.5183 141.053 56.8212 141.271 57.1021C143.571 60.0822 144.864 63.5117 145.765 67.122C145.943 67.8396 146.2 68.541 146.436 69.2434C146.601 69.7423 146.93 70.0963 147.371 70.3924C148.227 70.9674 149.016 70.9149 149.582 70.0332C150.125 69.1918 150.631 68.2937 150.952 67.3494C151.616 65.4073 153.497 64.7504 155.17 65.9786C155.309 66.0833 155.45 66.1841 155.65 66.3274L155.637 66.3273Z" />
</svg>

