<svg viewBox="0 0 34 39" xmlns="http://www.w3.org/2000/svg">
<path fill="currentColor" d="M16.6557 38.7598C16.8792 38.7598 17.1029 38.7598 17.3263 38.7598C17.3586 38.7538 17.3905 38.7462 17.4229 38.7421C17.7252 38.7045 18.0317 38.6889 18.3291 38.6271C20.3488 38.2065 21.7637 37.0004 22.6223 35.1013C23.019 34.2239 23.1535 33.2835 23.1584 32.3222C23.1613 31.7316 23.1589 31.141 23.1593 30.5504C23.1593 30.518 23.162 30.4855 23.1643 30.4352C23.3643 30.5963 23.552 30.7449 23.7369 30.8972C25.1043 32.0242 26.6666 32.5304 28.4166 32.4328C29.3344 32.3816 30.179 32.0947 30.9472 31.578C31.8114 30.9969 32.478 30.2218 33.0222 29.3316C33.5204 28.5167 33.8374 27.6331 33.9471 26.6753C33.9667 26.5042 33.9826 26.3326 34 26.1613V25.6232C33.988 25.5136 33.975 25.4041 33.9645 25.2943C33.8989 24.6096 33.7039 23.9656 33.3867 23.3596C32.9662 22.5563 32.3772 21.9006 31.689 21.3328C30.9422 20.7166 30.1164 20.2333 29.2503 19.8178C29.2166 19.8017 29.1838 19.7843 29.1354 19.7598C29.1858 19.7343 29.2171 19.7175 29.2492 19.7022C29.7828 19.4493 30.3171 19.1983 30.8211 18.8857C31.6098 18.3962 32.3203 17.8147 32.8841 17.0597C33.5099 16.2216 33.8691 15.2764 33.9647 14.2258C33.9752 14.1097 33.9882 13.9939 34 13.8779V13.3027C33.994 13.2638 33.9877 13.2248 33.9822 13.1858C33.9293 12.8073 33.9068 12.4212 33.8188 12.0512C33.4014 10.2965 32.4263 8.92828 30.9782 7.92058C29.9098 7.17709 28.7111 6.92233 27.4319 7.07597C26.722 7.16132 26.0515 7.39362 25.4023 7.69421C24.646 8.04452 23.9419 8.48594 23.2648 8.97467C23.2343 8.99656 23.2026 9.01679 23.1587 9.04629C23.1587 8.89358 23.1595 8.76092 23.1587 8.62825C23.1537 7.87734 23.1807 7.12588 23.0906 6.3772C23.0023 5.64336 22.8365 4.93105 22.5423 4.25436C22.0706 3.16946 21.3793 2.27068 20.3842 1.63889C19.5827 1.13012 18.6987 0.884453 17.7665 0.798729C17.6257 0.78574 17.4851 0.772755 17.3443 0.759766H16.6737C16.6385 0.765888 16.6035 0.775723 16.568 0.777576C16.081 0.801884 15.6035 0.883709 15.1333 1.01619C13.1899 1.56337 11.3078 3.33349 10.9294 5.99293C10.8014 6.89228 10.8373 7.79292 10.8891 8.69449C10.8955 8.80564 10.9038 8.91659 10.9123 9.0435C10.8739 9.01549 10.8514 9.00064 10.8306 8.98376C10.3974 8.63159 9.94578 8.30707 9.46369 8.02838C8.25719 7.33146 6.97511 6.94961 5.57704 7.0511C4.82056 7.10602 4.10558 7.31087 3.43663 7.67788C2.50996 8.18628 1.77559 8.914 1.1717 9.78495C0.552231 10.6784 0.176344 11.6705 0.0536463 12.7609C0.033529 12.9411 0.0177613 13.122 0 13.3027C0 13.4944 0 13.6863 0 13.8779C0.00598084 13.911 0.0155864 13.9438 0.0173988 13.9772C0.0560024 14.6572 0.217666 15.3052 0.502934 15.9204C0.931561 16.8446 1.5793 17.5848 2.35265 18.2179C3.08738 18.8194 3.89806 19.2933 4.74788 19.7002C4.78214 19.7165 4.81621 19.7334 4.86768 19.7585C4.81838 19.7841 4.78757 19.8008 4.75622 19.8162C4.40027 19.9911 4.03906 20.1557 3.68945 20.3429C2.76424 20.8382 1.92456 21.4495 1.25108 22.278C0.587935 23.094 0.183956 24.0268 0.054915 25.082C0.0337102 25.2557 0.0181238 25.4303 0 25.6045C0 25.7839 0 25.9632 0 26.1426C0.00561837 26.1754 0.0146802 26.2081 0.0163114 26.2413C0.0420471 26.7343 0.132303 27.2154 0.274756 27.6861C0.868128 29.6472 2.04799 31.0959 3.87214 31.9717C4.68372 32.3614 5.54279 32.51 6.43666 32.4267C7.13659 32.3614 7.80337 32.1621 8.44912 31.8841C9.27919 31.5268 10.0465 31.0562 10.7815 30.5272C10.8199 30.4996 10.8598 30.4738 10.9145 30.4367C10.9103 30.5248 10.9096 30.5946 10.9034 30.664C10.884 30.882 10.8485 31.0996 10.8445 31.3179C10.8331 31.9205 10.8393 32.5228 10.9092 33.1232C10.9973 33.8791 11.1688 34.6119 11.4742 35.3077C11.9396 36.3683 12.6276 37.2383 13.5954 37.861C14.4015 38.3798 15.2928 38.6321 16.2338 38.7208C16.3743 38.734 16.5151 38.7468 16.6557 38.7598ZM14.9153 14.9331C14.7984 14.6741 14.6839 14.4257 14.5739 14.1752C13.9089 12.6596 13.3387 11.1107 13.0207 9.47509C12.8479 8.58687 12.7551 7.69198 12.828 6.78466C12.8795 6.14452 13.0295 5.53148 13.2992 4.94978C13.7688 3.93651 14.5226 3.26149 15.5803 2.96109C16.5069 2.69799 17.443 2.70597 18.3755 2.92695C19.5661 3.20917 20.3909 3.93354 20.8286 5.10732C21.124 5.89941 21.2024 6.72695 21.1965 7.56618C21.1898 8.5236 21.0328 9.45969 20.7985 10.3837C20.4639 11.7029 19.9805 12.9663 19.4223 14.2012C19.3125 14.444 19.1994 14.6852 19.0852 14.9328C19.4057 15.122 19.7208 15.3081 20.0418 15.4978C20.075 15.4486 20.104 15.4061 20.1324 15.363C20.9389 14.1459 21.8047 12.9767 22.805 11.9173C23.57 11.107 24.3969 10.3742 25.3622 9.82002C26.1408 9.37304 26.9651 9.07839 27.8666 9.04295C28.4868 9.01864 29.0725 9.14611 29.6195 9.44744C30.2163 9.77623 30.6877 10.2499 31.0906 10.7999C31.6515 11.5655 31.9841 12.4184 32.0301 13.3818C32.0863 14.557 31.6948 15.5493 30.8769 16.3698C30.3685 16.8797 29.7741 17.2597 29.137 17.5748C28.1839 18.0461 27.1775 18.3548 26.1482 18.5914C24.9513 18.8665 23.7389 19.0393 22.5179 19.1523C22.3776 19.1653 22.2377 19.1807 22.0981 19.195V20.2873C22.1224 20.2904 22.1398 20.293 22.1574 20.2949C22.5358 20.3337 22.9159 20.36 23.2921 20.4134C23.9999 20.5142 24.7079 20.6166 25.4115 20.7439C26.4136 20.9252 27.3968 21.1866 28.3486 21.5605C29.17 21.883 29.9512 22.2825 30.625 22.8725C31.881 23.9724 32.2784 25.357 31.8995 26.9861C31.7124 27.7897 31.2981 28.4699 30.756 29.0729C30.3809 29.4904 29.9586 29.8455 29.4589 30.0984C28.7115 30.477 27.9291 30.5131 27.1271 30.3473C26.3008 30.1764 25.5592 29.8043 24.8618 29.3321C24.0642 28.792 23.3585 28.1405 22.6995 27.4345C21.7518 26.4192 20.9174 25.3108 20.1364 24.1587C20.106 24.1138 20.0746 24.0693 20.0413 24.0212C19.7181 24.1995 19.4031 24.3734 19.0854 24.5485C19.1024 24.5871 19.1153 24.6179 19.1295 24.648C19.7515 25.9682 20.3004 27.3176 20.6903 28.7306C21.0141 29.9042 21.2255 31.0948 21.1932 32.3213C21.1756 32.992 21.095 33.6517 20.8797 34.2885C20.4969 35.4208 19.7574 36.1844 18.6291 36.5245C17.7238 36.7972 16.8027 36.8204 15.8784 36.6336C15.1593 36.4881 14.5229 36.1669 14.0077 35.6272C13.496 35.0911 13.1845 34.4365 12.9927 33.7192C12.7834 32.936 12.7713 32.1376 12.8345 31.3358C12.9003 30.5024 13.0591 29.6852 13.2738 28.8792C13.6113 27.6129 14.0775 26.3955 14.6134 25.205C14.7114 24.9872 14.8126 24.7708 14.915 24.548C14.594 24.3712 14.279 24.1977 13.9578 24.0207C13.9227 24.0719 13.8917 24.1168 13.8611 24.1621C13.0638 25.3366 12.2131 26.4673 11.2405 27.4974C10.461 28.3231 9.62173 29.0746 8.64069 29.6444C7.86191 30.0968 7.038 30.4016 6.13236 30.4376C5.46721 30.464 4.84394 30.3192 4.2667 29.9773C3.71555 29.6509 3.28058 29.1958 2.90633 28.6758C2.35265 27.9068 2.01409 27.0557 1.96915 26.0919C1.92221 25.0855 2.19624 24.188 2.82876 23.4111C3.28838 22.8467 3.85964 22.4261 4.48599 22.0793C5.36445 21.5926 6.30363 21.2701 7.26817 21.02C8.63742 20.665 10.031 20.4624 11.4356 20.33C11.5789 20.3164 11.7219 20.3014 11.8647 20.2873V19.1914C11.6906 19.1757 11.5218 19.1669 11.3551 19.1441C10.5241 19.0304 9.69096 18.9294 8.86343 18.7923C7.78416 18.6135 6.72573 18.3416 5.70101 17.9451C4.91535 17.6412 4.16756 17.2645 3.50659 16.7257C2.95961 16.2796 2.50978 15.7508 2.24626 15.0803C1.81818 13.9917 1.88596 12.9025 2.29447 11.8275C2.58101 11.0732 3.06853 10.4635 3.66861 9.94563C4.55305 9.18248 5.56563 8.90323 6.70779 9.10047C7.50306 9.23777 8.22746 9.55432 8.90946 9.98274C9.84628 10.5711 10.6524 11.3192 11.3997 12.1377C12.3238 13.15 13.1347 14.2537 13.8919 15.3998C13.9133 15.4321 13.9368 15.4627 13.9611 15.4965C14.2821 15.3068 14.5952 15.1218 14.9153 14.9329V14.9331Z" />
</svg>
