<svg width="35" height="39" viewBox="0 0 35 39" xmlns="http://www.w3.org/2000/svg">
  <path d="M17.1557 38.5C17.3792 38.5 17.6029 38.5 17.8263 38.5C17.8586 38.494 17.8905 38.4864 17.9229 38.4823C18.2252 38.4447 18.5317 38.4291 18.8291 38.3673C20.8488 37.9467 22.2637 36.7406 23.1223 34.8415C23.519 33.9641 23.6535 33.0237 23.6584 32.0624C23.6613 31.4718 23.6589 30.8812 23.6593 30.2906C23.6593 30.2582 23.662 30.2257 23.6643 30.1754C23.8643 30.3365 24.052 30.4851 24.2369 30.6374C25.6043 31.7644 27.1666 32.2706 28.9166 32.173C29.8344 32.1218 30.679 31.8349 31.4472 31.3182C32.3114 30.7371 32.978 29.962 33.5222 29.0718C34.0204 28.2569 34.3374 27.3733 34.4471 26.4155C34.4667 26.2444 34.4826 26.0728 34.5 25.9015V25.3634C34.488 25.2538 34.475 25.1443 34.4645 25.0345C34.3989 24.3498 34.2039 23.7058 33.8867 23.0998C33.4662 22.2965 32.8772 21.6408 32.189 21.073C31.4422 20.4568 30.6164 19.9735 29.7503 19.558C29.7166 19.5419 29.6838 19.5245 29.6354 19.5C29.6858 19.4745 29.7171 19.4577 29.7492 19.4424C30.2828 19.1895 30.8171 18.9385 31.3211 18.6259C32.1098 18.1364 32.8203 17.5549 33.3841 16.7999C34.0099 15.9618 34.3691 15.0166 34.4647 13.966C34.4752 13.8499 34.4882 13.7341 34.5 13.6181V13.0429C34.494 13.004 34.4877 12.965 34.4822 12.926C34.4293 12.5475 34.4068 12.1614 34.3188 11.7914C33.9014 10.0367 32.9263 8.66851 31.4782 7.66081C30.4098 6.91732 29.2111 6.66256 27.9319 6.8162C27.222 6.90155 26.5515 7.13385 25.9023 7.43444C25.146 7.78475 24.4419 8.22617 23.7648 8.7149C23.7343 8.73679 23.7026 8.75702 23.6587 8.78652C23.6587 8.63381 23.6595 8.50115 23.6587 8.36848C23.6537 7.61757 23.6807 6.86611 23.5906 6.11743C23.5023 5.38359 23.3365 4.67128 23.0423 3.99459C22.5706 2.90969 21.8793 2.01091 20.8842 1.37912C20.0827 0.870354 19.1987 0.624687 18.2665 0.538963C18.1257 0.525974 17.9851 0.512989 17.8443 0.5H17.1737C17.1385 0.506122 17.1035 0.515957 17.068 0.51781C16.581 0.542118 16.1035 0.623943 15.6333 0.756424C13.6899 1.3036 11.8078 3.07372 11.4294 5.73316C11.3014 6.63251 11.3373 7.53315 11.3891 8.43472C11.3955 8.54587 11.4038 8.65682 11.4123 8.78373C11.3739 8.75572 11.3514 8.74087 11.3306 8.72399C10.8974 8.37182 10.4458 8.0473 9.96369 7.76861C8.75719 7.07169 7.47511 6.68984 6.07704 6.79133C5.32056 6.84625 4.60558 7.0511 3.93663 7.41811C3.00996 7.92651 2.27559 8.65423 1.6717 9.52518C1.05223 10.4186 0.676344 11.4107 0.553646 12.5011C0.533529 12.6813 0.517761 12.8622 0.5 13.0429C0.5 13.2346 0.5 13.4265 0.5 13.6181C0.505981 13.6512 0.515586 13.684 0.517399 13.7174C0.556002 14.3974 0.717666 15.0454 1.00293 15.6606C1.43156 16.5848 2.0793 17.325 2.85265 17.9581C3.58738 18.5596 4.39806 19.0335 5.24788 19.4404C5.28214 19.4567 5.31621 19.4736 5.36768 19.4987C5.31838 19.5243 5.28757 19.541 5.25622 19.5564C4.90027 19.7313 4.53906 19.8959 4.18945 20.0831C3.26424 20.5784 2.42456 21.1897 1.75108 22.0182C1.08794 22.8342 0.683956 23.767 0.554915 24.8222C0.53371 24.9959 0.518124 25.1705 0.5 25.3447C0.5 25.5241 0.5 25.7034 0.5 25.8828C0.505618 25.9156 0.51468 25.9483 0.516311 25.9815C0.542047 26.4745 0.632303 26.9556 0.774756 27.4263C1.36813 29.3874 2.54799 30.8361 4.37214 31.7119C5.18372 32.1016 6.04279 32.2502 6.93666 32.1669C7.63659 32.1016 8.30337 31.9023 8.94912 31.6243C9.77919 31.267 10.5465 30.7964 11.2815 30.2674C11.3199 30.2398 11.3598 30.214 11.4145 30.1769C11.4103 30.265 11.4096 30.3348 11.4034 30.4042C11.384 30.6222 11.3485 30.8398 11.3445 31.0581C11.3331 31.6607 11.3393 32.263 11.4092 32.8634C11.4973 33.6193 11.6688 34.3521 11.9742 35.0479C12.4396 36.1085 13.1276 36.9785 14.0954 37.6012C14.9015 38.12 15.7928 38.3723 16.7338 38.461C16.8743 38.4742 17.0151 38.487 17.1557 38.5ZM15.4153 14.6733C15.2984 14.4143 15.1839 14.1659 15.0739 13.9154C14.4089 12.3998 13.8387 10.8509 13.5207 9.21532C13.3479 8.3271 13.2551 7.43221 13.328 6.52489C13.3795 5.88475 13.5295 5.27171 13.7992 4.69001C14.2688 3.67674 15.0226 3.00172 16.0803 2.70132C17.0069 2.43822 17.943 2.4462 18.8755 2.66718C20.0661 2.9494 20.8909 3.67377 21.3286 4.84755C21.624 5.63964 21.7024 6.46718 21.6965 7.30641C21.6898 8.26383 21.5328 9.19992 21.2985 10.1239C20.9639 11.4431 20.4805 12.7065 19.9223 13.9414C19.8125 14.1842 19.6994 14.4254 19.5852 14.673C19.9057 14.8622 20.2208 15.0483 20.5418 15.238C20.575 15.1888 20.604 15.1463 20.6324 15.1032C21.4389 13.8861 22.3047 12.7169 23.305 11.6575C24.07 10.8472 24.8969 10.1144 25.8622 9.56025C26.6408 9.11327 27.4651 8.81862 28.3666 8.78318C28.9868 8.75887 29.5725 8.88634 30.1195 9.18767C30.7163 9.51646 31.1877 9.99013 31.5906 10.5401C32.1515 11.3057 32.4841 12.1586 32.5301 13.122C32.5863 14.2972 32.1948 15.2895 31.3769 16.11C30.8685 16.6199 30.2741 16.9999 29.637 17.315C28.6839 17.7863 27.6775 18.095 26.6482 18.3316C25.4513 18.6067 24.2389 18.7795 23.0179 18.8925C22.8776 18.9055 22.7377 18.9209 22.5981 18.9352V20.0275C22.6224 20.0306 22.6398 20.0332 22.6574 20.0351C23.0358 20.0739 23.4159 20.1002 23.7921 20.1536C24.4999 20.2544 25.2079 20.3568 25.9115 20.4841C26.9136 20.6654 27.8968 20.9268 28.8486 21.3007C29.67 21.6232 30.4512 22.0227 31.125 22.6127C32.381 23.7126 32.7784 25.0972 32.3995 26.7263C32.2124 27.5299 31.7981 28.2101 31.256 28.8131C30.8809 29.2306 30.4586 29.5857 29.9589 29.8386C29.2115 30.2172 28.4291 30.2533 27.6271 30.0875C26.8008 29.9166 26.0592 29.5445 25.3618 29.0723C24.5642 28.5322 23.8585 27.8807 23.1995 27.1747C22.2518 26.1594 21.4174 25.051 20.6364 23.8989C20.606 23.854 20.5746 23.8095 20.5413 23.7614C20.2181 23.9397 19.9031 24.1136 19.5854 24.2887C19.6024 24.3273 19.6153 24.3581 19.6295 24.3882C20.2515 25.7084 20.8004 27.0578 21.1903 28.4708C21.5141 29.6444 21.7255 30.835 21.6932 32.0615C21.6756 32.7322 21.595 33.3919 21.3797 34.0287C20.9969 35.161 20.2574 35.9246 19.1291 36.2647C18.2238 36.5374 17.3027 36.5606 16.3784 36.3738C15.6593 36.2283 15.0229 35.9071 14.5077 35.3674C13.996 34.8313 13.6845 34.1767 13.4927 33.4594C13.2834 32.6762 13.2713 31.8778 13.3345 31.076C13.4003 30.2426 13.5591 29.4254 13.7738 28.6194C14.1113 27.3531 14.5775 26.1357 15.1134 24.9452C15.2114 24.7274 15.3126 24.511 15.415 24.2882C15.094 24.1114 14.779 23.9379 14.4578 23.7609C14.4227 23.8121 14.3917 23.857 14.3611 23.9023C13.5638 25.0768 12.7131 26.2075 11.7405 27.2376C10.961 28.0633 10.1217 28.8148 9.14069 29.3846C8.36191 29.837 7.538 30.1418 6.63236 30.1778C5.96721 30.2042 5.34394 30.0594 4.7667 29.7175C4.21555 29.3911 3.78058 28.936 3.40633 28.416C2.85265 27.647 2.51409 26.7959 2.46915 25.8321C2.42221 24.8257 2.69624 23.9282 3.32876 23.1513C3.78838 22.5869 4.35964 22.1663 4.98599 21.8195C5.86445 21.3328 6.80363 21.0103 7.76817 20.7602C9.13742 20.4052 10.531 20.2026 11.9356 20.0702C12.0789 20.0566 12.2219 20.0416 12.3647 20.0275V18.9316C12.1906 18.9159 12.0218 18.9071 11.8551 18.8843C11.0241 18.7706 10.191 18.6696 9.36343 18.5325C8.28416 18.3537 7.22573 18.0818 6.20101 17.6853C5.41535 17.3814 4.66756 17.0047 4.00659 16.4659C3.45961 16.0198 3.00978 15.491 2.74626 14.8205C2.31818 13.7319 2.38596 12.6427 2.79447 11.5677C3.08101 10.8134 3.56853 10.2037 4.16861 9.68586C5.05305 8.92271 6.06563 8.64346 7.20779 8.8407C8.00306 8.978 8.72746 9.29455 9.40946 9.72297C10.3463 10.3113 11.1524 11.0594 11.8997 11.8779C12.8238 12.8902 13.6347 13.9939 14.3919 15.14C14.4133 15.1723 14.4368 15.2029 14.4611 15.2367C14.7821 15.047 15.0952 14.8622 15.4153 14.6733Z" />
</svg>
