<svg width="16" height="16" viewBox="0 0 16 16" fill="none" xmlns="http://www.w3.org/2000/svg">
  <style>
    @media (prefers-color-scheme: dark) {
      path { fill: white; }
    }
  </style>

  <path d="M15.2326 9.6601C15.16 9.87106 15.1039 10.0376 15.0452 10.2036C14.9784 10.3929 14.9072 10.5805 14.8416 10.77C14.7679 10.9832 14.6995 11.1983 14.6263 11.4118C14.6044 11.4755 14.575 11.5367 14.5463 11.5979C14.5158 11.6634 14.4842 11.7282 14.4503 11.7919C14.3914 11.9034 14.3308 12.0138 14.2698 12.1243C14.2405 12.1776 14.2067 12.2287 14.1789 12.2825C14.0812 12.4719 13.9415 12.6329 13.8254 12.81C13.7321 12.9518 13.6282 13.0849 13.5093 13.2056C13.338 13.3793 13.1558 13.5395 12.9519 13.6758C12.8588 13.738 12.777 13.8177 12.6931 13.8927C12.5848 13.9892 12.4762 14.0869 12.3397 14.1394C12.1802 14.2007 12.052 14.3032 11.9279 14.4158C11.8816 14.458 11.8271 14.4916 11.7765 14.529C11.584 14.6714 11.3784 14.7935 11.169 14.9083C10.9734 15.0155 10.7762 15.1199 10.5796 15.2254C10.5618 15.2348 10.543 15.243 10.5251 15.2524C10.4456 15.2948 10.3672 15.3391 10.286 15.3785C10.2195 15.4108 10.1501 15.4376 10.0812 15.4654C9.9891 15.5024 9.89742 15.5411 9.80384 15.574C9.57416 15.6542 9.34379 15.7332 9.10197 15.7725C8.95296 15.7965 8.80456 15.8267 8.65814 15.8626C8.56062 15.8864 8.46311 15.9056 8.3643 15.8985C8.2498 15.8899 8.13924 15.9093 8.02883 15.9294C7.94807 15.9441 7.86777 15.9509 7.78675 15.9413C7.62013 15.9211 7.45348 15.9348 7.28666 15.9354C7.10426 15.936 6.92146 15.9358 6.73959 15.9233C6.51715 15.9081 6.29541 15.8823 6.07397 15.8565C5.98684 15.8464 5.90142 15.8237 5.81516 15.8062C5.68046 15.7791 5.54556 15.7525 5.41098 15.7242C5.34037 15.7095 5.26946 15.6947 5.20039 15.6746C5.0099 15.6186 4.81901 15.5639 4.63098 15.5008C4.47095 15.447 4.31468 15.3823 4.15619 15.3231C4.03437 15.2778 3.92861 15.2043 3.81962 15.1362C3.68005 15.049 3.54119 14.9607 3.40526 14.8678C3.32206 14.8106 3.2456 14.7435 3.16583 14.6811C3.14279 14.6633 3.11975 14.6444 3.09388 14.6309C3.03523 14.6007 2.97989 14.5667 2.93883 14.5134C2.93324 14.5065 2.92616 14.5001 2.91876 14.4956C2.80093 14.4281 2.72202 14.319 2.62656 14.2271C2.55558 14.1585 2.47819 14.096 2.4039 14.0313C2.40213 14.0297 2.39976 14.0289 2.39868 14.0272C2.3325 13.935 2.23434 13.875 2.16025 13.7904C2.07849 13.6973 1.99333 13.6072 1.91138 13.5146C1.82029 13.4119 1.72648 13.3133 1.66022 13.1895C1.58029 13.0409 1.48322 12.9016 1.39631 12.7569C1.3674 12.7087 1.34409 12.6569 1.32088 12.6058C1.29495 12.5481 1.27519 12.4879 1.24716 12.4314C1.20951 12.3547 1.16428 12.2817 1.12612 12.2055C1.07298 12.0986 1.02223 11.9906 0.97239 11.8818C0.940324 11.8121 0.914139 11.7396 0.88147 11.6706C0.862217 11.6301 0.834885 11.5939 0.811541 11.5557C0.680366 11.3409 0.60626 11.105 0.555954 10.8607C0.490489 10.5428 0.425719 10.2248 0.363037 9.90654C0.341948 9.8 0.333973 9.6921 0.346446 9.58351C0.348066 9.57017 0.350186 9.55629 0.348726 9.54317C0.33499 9.39508 0.323341 9.24668 0.305729 9.09927C0.28044 8.88444 0.249186 8.6706 0.232642 8.45449C0.220341 8.29168 0.220327 8.1307 0.230644 7.96865C0.236702 7.87682 0.24186 7.78567 0.241872 7.69309C0.241825 7.58619 0.271945 7.47941 0.284009 7.37205C0.299454 7.23367 0.339174 7.099 0.336489 6.95737C0.333391 6.78705 0.374701 6.62172 0.413823 6.45698C0.478726 6.18263 0.545807 5.9087 0.614669 5.63538C0.640382 5.53272 0.672235 5.43152 0.704382 5.33041C0.795498 5.04451 0.89007 4.76013 0.979997 4.47382C1.04361 4.27071 1.13796 4.0805 1.21837 3.8845C1.27225 3.75304 1.3285 3.6224 1.38614 3.49257C1.41617 3.42459 1.45283 3.35956 1.48435 3.29208C1.50817 3.24121 1.52804 3.18831 1.55077 3.13673C1.57797 3.07508 1.59906 3.00899 1.63583 2.95329C1.7169 2.83152 1.80576 2.71509 1.89197 2.59675C1.94236 2.52748 1.99344 2.45911 2.04403 2.39024C2.056 2.37378 2.06571 2.35522 2.07984 2.34117C2.15028 2.2715 2.22239 2.20373 2.29284 2.13406C2.34565 2.08189 2.39717 2.0286 2.44772 1.97431C2.53697 1.87893 2.62317 1.78084 2.7139 1.68695C2.78448 1.614 2.85839 1.54487 2.93319 1.47603C2.96774 1.44412 3.00769 1.41772 3.04489 1.38871C3.11599 1.33353 3.18689 1.27796 3.25799 1.22278C3.38608 1.12351 3.50829 1.01624 3.65772 0.947538C3.69002 0.932767 3.71706 0.907235 3.74712 0.887383C3.86986 0.807504 3.97322 0.700051 4.10781 0.637855C4.15705 0.615314 4.20755 0.595861 4.25777 0.575314C4.26823 0.57095 4.28114 0.570084 4.28885 0.563114C4.37687 0.481906 4.49347 0.471931 4.60017 0.439631C4.72478 0.401552 4.85391 0.378303 4.97883 0.340325C5.24538 0.259175 5.52079 0.225546 5.79319 0.174622C5.94391 0.146522 6.0933 0.111663 6.24373 0.0824691C6.2829 0.0747146 6.32378 0.075511 6.364 0.0734231C6.3907 0.0719972 6.41798 0.0737524 6.4449 0.0707407C6.61548 0.0514692 6.78667 0.0506614 6.95794 0.0611676C7.15818 0.0733461 7.35845 0.0825479 7.55824 0.099882C7.88369 0.128269 8.20968 0.157852 8.53021 0.224398C8.69719 0.258976 8.86326 0.299202 9.03031 0.333484C9.20017 0.368388 9.37124 0.398739 9.5414 0.431761C9.56786 0.436882 9.59327 0.446955 9.6189 0.455442C9.85981 0.538377 10.1009 0.62171 10.3422 0.703755C10.3757 0.715296 10.4121 0.71853 10.4471 0.726613C10.4758 0.732847 10.505 0.737895 10.5323 0.747292C10.8609 0.859766 11.1903 0.971152 11.5175 1.08778C11.6062 1.11931 11.6881 1.16973 11.7737 1.20916C11.8986 1.26675 12.0253 1.31999 12.1488 1.37974C12.2259 1.41692 12.2998 1.46061 12.3724 1.50617C12.4161 1.53349 12.4544 1.5689 12.4946 1.60135C12.5313 1.63088 12.5651 1.66476 12.6041 1.69044C12.7014 1.7548 12.7843 1.83877 12.8955 1.88501C12.9514 1.90858 12.9972 1.95785 13.046 1.99723C13.0772 2.02225 13.1053 2.05149 13.1361 2.0777C13.2219 2.15068 13.3047 2.2283 13.3955 2.29409C13.5527 2.40826 13.699 2.53462 13.8476 2.65913C13.9607 2.75382 14.0601 2.86037 14.1505 2.97648C14.1947 3.03317 14.2473 3.08311 14.2943 3.13745C14.377 3.23263 14.4627 3.32586 14.5396 3.42535C14.6402 3.55554 14.7275 3.69413 14.7996 3.84339C14.873 3.99545 14.9596 4.14108 15.0363 4.29157C15.1293 4.47458 15.2124 4.66215 15.2853 4.85419C15.3141 4.92979 15.3511 5.0023 15.3837 5.07655C15.3919 5.09499 15.4021 5.11375 15.4054 5.13313C15.428 5.27764 15.4924 5.40767 15.5444 5.54205C15.5891 5.658 15.6267 5.77418 15.6347 5.90038C15.6427 6.02093 15.6659 6.14044 15.6841 6.2602C15.7308 6.56799 15.7829 6.87464 15.7764 7.18767C15.7734 7.32141 15.7572 7.45254 15.7336 7.5838C15.7112 7.7078 15.6977 7.8336 15.6765 7.95773C15.6316 8.2204 15.5742 8.47974 15.4982 8.73528C15.4526 8.88891 15.418 9.04528 15.3734 9.19913C15.3245 9.36816 15.2699 9.53551 15.2317 9.65881L15.2326 9.6601ZM9.92957 1.69704C9.84206 1.66692 9.75357 1.63945 9.6675 1.60616C9.39892 1.50311 9.12108 1.435 8.83808 1.38738C8.78697 1.37874 8.73556 1.37199 8.68475 1.36246C8.55425 1.33747 8.42496 1.30524 8.2937 1.28758C8.17215 1.27131 8.05446 1.24506 7.93746 1.21077C7.88415 1.19506 7.82743 1.18816 7.77193 1.18266C7.69579 1.17536 7.6194 1.17263 7.54282 1.1695C7.52061 1.16848 7.49852 1.17383 7.47608 1.17539C7.44996 1.17702 7.42323 1.18143 7.39756 1.1779C7.25673 1.15896 7.11578 1.1423 6.9732 1.16026C6.93753 1.16457 6.9013 1.16571 6.86529 1.16427C6.73028 1.15927 6.59509 1.15289 6.46019 1.14661C6.33827 1.14115 6.21883 1.14783 6.10048 1.18408C5.88261 1.25012 5.66042 1.30074 5.43493 1.33397C5.41297 1.33703 5.39096 1.34505 5.37082 1.35438C5.29118 1.39101 5.21376 1.43273 5.13266 1.46588C5.02416 1.51017 4.91177 1.54549 4.80337 1.58948C4.72228 1.62262 4.6432 1.66145 4.5652 1.70197C4.52162 1.72446 4.48241 1.75544 4.44116 1.78272C4.42048 1.79652 4.39923 1.80911 4.37904 1.8234C4.2894 1.88713 4.20026 1.95135 4.11062 2.01508C4.05565 2.05424 3.99697 2.08879 3.94662 2.13286C3.88066 2.19047 3.82147 2.25538 3.75915 2.3169C3.74953 2.32653 3.73854 2.33436 3.72872 2.34359C3.68014 2.39025 3.63185 2.43702 3.58316 2.48398C3.57024 2.49645 3.5578 2.50943 3.54488 2.52191C3.48929 2.57446 3.43351 2.62661 3.37821 2.67925C3.33735 2.71796 3.29629 2.75625 3.2568 2.79576C3.23645 2.8163 3.21492 2.83743 3.20008 2.86219C3.13349 2.97467 3.0739 3.09089 3.02824 3.21389C3.01917 3.23831 3.0012 3.25967 2.98581 3.28126C2.96769 3.30688 2.94602 3.33029 2.9293 3.35672C2.89775 3.40593 2.87311 3.46017 2.83763 3.50636C2.74083 3.63234 2.66113 3.76652 2.59866 3.91328C2.52696 4.08108 2.44518 4.24442 2.36626 4.40907C2.338 4.46804 2.305 4.52438 2.27595 4.58275C2.24791 4.63913 2.2174 4.695 2.19638 4.75414C2.10104 5.02432 2.00868 5.29553 1.91573 5.56653C1.9091 5.58581 1.90037 5.60537 1.89988 5.62512C1.89767 5.69902 1.86853 5.76533 1.84544 5.83338C1.8105 5.93585 1.77131 6.03718 1.74092 6.14088C1.70654 6.25715 1.66326 6.37035 1.64331 6.49192C1.61778 6.64707 1.58311 6.80273 1.53225 6.95149C1.47239 7.12536 1.46489 7.30431 1.44697 7.48266C1.43125 7.63917 1.42563 7.7972 1.41735 7.95432C1.41566 7.98526 1.42031 8.0171 1.42527 8.04797C1.43377 8.10135 1.44884 8.15398 1.45437 8.20736C1.46615 8.32156 1.47585 8.43614 1.48228 8.55049C1.49479 8.7735 1.52449 8.99379 1.57455 9.2118C1.59484 9.29945 1.61093 9.38863 1.62087 9.47834C1.64138 9.66457 1.67014 9.84907 1.72107 10.0298C1.72836 10.0559 1.73385 10.0824 1.73796 10.109C1.76048 10.2518 1.79703 10.3905 1.85846 10.5225C1.87041 10.5485 1.87369 10.5785 1.88016 10.607C1.89367 10.6661 1.90659 10.7249 1.92011 10.784C1.92353 10.7991 1.92805 10.8139 1.93118 10.8289C1.94085 10.8751 1.94355 10.9242 1.96059 10.9672C2.01997 11.1157 2.08444 11.2621 2.1469 11.4093C2.16893 11.461 2.19084 11.5131 2.21247 11.565C2.24476 11.6418 2.27267 11.7208 2.30975 11.7952C2.38129 11.9384 2.45801 12.0789 2.53354 12.2201C2.54825 12.2477 2.56826 12.2725 2.58496 12.2992C2.62709 12.3658 2.67509 12.4298 2.70883 12.5004C2.79159 12.6736 2.90744 12.822 3.03346 12.964C3.07214 13.0078 3.11501 13.0482 3.15508 13.0908C3.20419 13.1429 3.25299 13.1959 3.3015 13.2487C3.38182 13.3365 3.4433 13.4422 3.54475 13.51C3.58577 13.5374 3.63412 13.5551 3.67102 13.5867C3.75704 13.6608 3.85272 13.7192 3.9485 13.7785C4.03471 13.8317 4.11719 13.8909 4.20502 13.9414C4.33735 14.0178 4.46422 14.1043 4.60684 14.1634C4.65853 14.1848 4.70373 14.2212 4.7546 14.245C4.91197 14.3181 5.06882 14.3928 5.22954 14.4581C5.37919 14.5188 5.52707 14.5886 5.69228 14.6004C5.71013 14.6015 5.72774 14.6073 5.74455 14.6134C5.8105 14.6378 5.87641 14.6565 5.94835 14.6566C5.99549 14.6566 6.04223 14.6674 6.0891 14.6739C6.22497 14.6928 6.35991 14.7153 6.4962 14.7311C6.66125 14.7501 6.82448 14.7213 6.98903 14.7291C7.1392 14.7364 7.29045 14.725 7.4413 14.7235C7.53589 14.7226 7.63089 14.7291 7.72522 14.7241C7.90455 14.7141 8.08161 14.6808 8.26314 14.6885C8.43823 14.6957 8.60839 14.6478 8.77249 14.5961C8.908 14.5534 9.04555 14.5192 9.18015 14.4742C9.26341 14.4464 9.34606 14.4165 9.42932 14.3878C9.50166 14.3625 9.57287 14.3332 9.64688 14.3139C9.7723 14.2811 9.89029 14.2315 10.0025 14.1685C10.1066 14.1101 10.2048 14.0408 10.3107 13.9859C10.4327 13.9227 10.5386 13.833 10.6641 13.7757C10.7118 13.754 10.7485 13.7089 10.7929 13.6783C10.9229 13.589 11.0542 13.5015 11.1854 13.4135C11.2228 13.3886 11.2639 13.3685 11.2994 13.3409C11.4575 13.2171 11.6131 13.0908 11.7709 12.9669C11.8595 12.8976 11.9523 12.8333 12.0401 12.7626C12.1558 12.6693 12.2697 12.5735 12.382 12.4757C12.4553 12.4123 12.5239 12.344 12.5949 12.2786C12.6645 12.2143 12.7311 12.1462 12.8055 12.0882C12.8741 12.0345 12.9326 11.9733 12.979 11.901C13.0666 11.7645 13.1513 11.6264 13.237 11.489C13.2645 11.445 13.2937 11.4024 13.3193 11.3571C13.3863 11.2397 13.4532 11.1224 13.5173 11.0037C13.5375 10.9663 13.5409 10.9186 13.5654 10.8852C13.6198 10.8101 13.6455 10.7247 13.6739 10.6392C13.7758 10.3307 13.8807 10.0234 13.9813 9.71454C14.0176 9.60323 14.0502 9.49032 14.0778 9.37642C14.1166 9.21619 14.1542 9.05619 14.2224 8.90514C14.2306 8.88709 14.2341 8.86632 14.2389 8.84675C14.2499 8.8011 14.2607 8.75538 14.2706 8.70935C14.2841 8.64793 14.2992 8.58673 14.3092 8.52486C14.3207 8.45381 14.3199 8.37987 14.3384 8.31087C14.4225 7.992 14.4401 7.66624 14.4532 7.33917C14.4589 7.19514 14.4605 7.05066 14.4736 6.90749C14.4859 6.77365 14.48 6.6422 14.4587 6.5104C14.4476 6.44152 14.4306 6.37299 14.4264 6.30347C14.4143 6.10886 14.3837 5.91941 14.3165 5.73497C14.2765 5.62532 14.2485 5.51083 14.2199 5.39742C14.196 5.30291 14.1665 5.21113 14.1229 5.12407C14.1078 5.09434 14.1016 5.06035 14.0915 5.028C14.0689 4.95484 14.0497 4.88052 14.0232 4.80901C13.9515 4.6154 13.8334 4.44534 13.7313 4.2678C13.6441 4.11631 13.5309 3.97915 13.428 3.83683C13.3948 3.79125 13.3586 3.74793 13.3198 3.70736C13.2448 3.62943 13.1663 3.55463 13.0907 3.47747C13.0007 3.38609 12.9113 3.29392 12.8228 3.20077C12.7809 3.15679 12.7453 3.10603 12.7001 3.06589C12.6125 2.98863 12.5218 2.91461 12.4288 2.84344C12.3017 2.74623 12.169 2.65641 12.0234 2.58771C11.938 2.54738 11.8531 2.50586 11.7684 2.46375C11.7159 2.43774 11.6658 2.40688 11.6125 2.38225C11.5451 2.35072 11.4762 2.32336 11.4075 2.2944C11.3204 2.25743 11.2334 2.22086 11.1461 2.18418C11.038 2.13866 10.9288 2.09612 10.8225 2.04655C10.6508 1.96687 10.4835 1.87811 10.301 1.82323C10.1759 1.78549 10.0532 1.73964 9.92957 1.69704Z" fill="black"/>
  <path d="M9.37882 10.0717C9.33128 10.1857 9.2669 10.3544 9.19137 10.5179C9.0752 10.7696 8.94917 11.0163 8.84551 11.274C8.78591 11.4221 8.7053 11.5616 8.6344 11.7051C8.6203 11.7334 8.60597 11.7616 8.59512 11.7911C8.58125 11.8295 8.59346 11.8586 8.62667 11.877C8.66974 11.9011 8.73215 11.8954 8.77203 11.8633C8.82838 11.8183 8.88328 11.7715 8.94129 11.7284C8.9902 11.6925 9.03994 11.6559 9.09363 11.6282C9.23755 11.5542 9.35494 11.4437 9.48711 11.3537C9.57082 11.2966 9.65097 11.2343 9.73621 11.1796C9.89787 11.0764 10.0608 10.9751 10.2039 10.8465C10.3096 10.7518 10.4107 10.6519 10.5149 10.5553C10.6158 10.462 10.7183 10.3705 10.82 10.2784C10.8249 10.2738 10.8316 10.2708 10.8354 10.2654C10.9415 10.1221 11.093 10.0213 11.1961 9.87318C11.2975 9.72721 11.411 9.59011 11.5188 9.44869C11.5515 9.40577 11.5799 9.35982 11.6148 9.31909C11.6485 9.28019 11.6849 9.24266 11.7254 9.21081C11.8186 9.13771 11.9284 9.13801 12.035 9.16273C12.1516 9.18958 12.265 9.23227 12.3596 9.30833C12.4717 9.39834 12.5852 9.48888 12.6707 9.60687C12.7262 9.68376 12.7507 9.77278 12.7576 9.86643C12.7609 9.9117 12.7409 9.94931 12.7151 9.98488C12.5912 10.1569 12.4697 10.3305 12.3431 10.5007C12.2691 10.6 12.1859 10.6921 12.1103 10.7903C12.036 10.8865 11.9682 10.9873 11.8944 11.0839C11.829 11.1696 11.7619 11.2547 11.6909 11.3359C11.5105 11.5416 11.2836 11.6977 11.0961 11.8964C10.9226 12.0802 10.7185 12.2237 10.4987 12.3465C10.4202 12.3905 10.3454 12.4417 10.271 12.4921C10.0394 12.6484 9.79391 12.7839 9.57158 12.9546C9.49856 13.0105 9.41598 13.0547 9.33545 13.0996C9.20934 13.1701 9.08483 13.2424 8.97556 13.3381C8.95221 13.3587 8.92339 13.374 8.89541 13.3879C8.66648 13.4996 8.43732 13.6109 8.20764 13.721C8.1817 13.7336 8.15251 13.7431 8.124 13.7459C7.9894 13.76 7.868 13.8148 7.74417 13.8631C7.64565 13.9015 7.54365 13.9308 7.44454 13.968C7.3562 14.001 7.2693 14.0385 7.18201 14.0751C7.09233 14.113 7.00227 14.149 6.9016 14.1329C6.89496 14.132 6.88773 14.1308 6.88146 14.1326C6.77868 14.1593 6.68566 14.123 6.59211 14.0891C6.5667 14.08 6.54059 14.071 6.51393 14.0675C6.46606 14.061 6.43733 14.0355 6.4187 13.9922C6.39028 13.9254 6.3805 13.8603 6.40858 13.7893C6.44205 13.7056 6.46355 13.6171 6.4987 13.5342C6.57022 13.3641 6.64729 13.1961 6.72227 13.0275C6.75616 12.9512 6.79381 12.8766 6.82324 12.7988C6.86471 12.6889 6.91396 12.5834 6.9667 12.4784C7.02741 12.3579 7.07698 12.2312 7.12475 12.105C7.19168 11.9279 7.24902 11.7469 7.31714 11.5702C7.3593 11.4613 7.41232 11.3564 7.46356 11.2509C7.49445 11.1872 7.47255 11.1429 7.40192 11.1407C7.37791 11.1401 7.35178 11.1438 7.32946 11.1526C7.17254 11.2161 7.02373 11.2927 6.8952 11.4068C6.84355 11.4527 6.78344 11.4904 6.72403 11.527C6.58646 11.6114 6.47792 11.731 6.34908 11.8257C6.28381 11.8736 6.21609 11.918 6.14857 11.9628C5.91165 12.1199 5.68491 12.2907 5.46866 12.4755C5.43103 12.5076 5.39311 12.5397 5.35274 12.5683C5.21573 12.6655 5.10643 12.7912 4.99468 12.9143C4.92487 12.9908 4.86085 13.0726 4.79153 13.1497C4.7227 13.2262 4.64387 13.2913 4.53988 13.311C4.42674 13.3321 4.31294 13.3494 4.20748 13.2759C4.14508 13.2325 4.07566 13.199 4.01286 13.1558C3.91843 13.0908 3.88736 12.9901 3.86846 12.8831C3.83815 12.7147 3.89294 12.5613 3.95465 12.411C3.97731 12.3557 4.01867 12.3078 4.05398 12.2583C4.12321 12.1613 4.19233 12.0637 4.2655 11.9697C4.30117 11.9239 4.34326 11.8817 4.38838 11.845C4.49691 11.7573 4.57728 11.6463 4.65974 11.5359C4.69473 11.4893 4.73129 11.4438 4.76816 11.3983C4.81938 11.3353 4.87051 11.2726 4.92291 11.211C4.97973 11.1443 5.03989 11.0804 5.09524 11.0121C5.17761 10.9108 5.27133 10.8149 5.33366 10.7023C5.40792 10.5675 5.50189 10.4459 5.57416 10.3112C5.64643 10.1764 5.73144 10.049 5.78643 9.90465C5.86363 9.70256 5.95189 9.50495 6.03028 9.30332C6.08178 9.171 6.12331 9.03496 6.17046 8.9009C6.22129 8.75614 6.27183 8.61123 6.32554 8.46776C6.34022 8.42802 6.35986 8.3873 6.38716 8.35621C6.44496 8.29047 6.477 8.21092 6.51881 8.13669C6.53962 8.09938 6.56151 8.06283 6.58636 8.02818C6.6254 7.97358 6.67142 7.92474 6.70988 7.86893C6.75347 7.80493 6.81856 7.75572 6.8926 7.72273C7.01868 7.66692 7.1436 7.60869 7.28754 7.62438C7.38449 7.63492 7.46922 7.67701 7.54971 7.7266C7.57624 7.74306 7.58888 7.78059 7.61026 7.80622C7.72052 7.93809 7.73355 8.09688 7.73633 8.25847C7.73712 8.31018 7.73453 8.36205 7.73571 8.41354C7.73796 8.50924 7.72564 8.60091 7.68212 8.6888C7.65235 8.74924 7.63275 8.81483 7.61198 8.87906C7.56861 9.01183 7.52968 9.14613 7.48482 9.2783C7.45467 9.36785 7.4177 9.45498 7.3837 9.54317C7.37799 9.55781 7.3716 9.57252 7.36679 9.58745C7.32915 9.70264 7.40836 9.80228 7.52894 9.78067C7.60101 9.768 7.67135 9.73911 7.73892 9.70962C7.81704 9.67542 7.88953 9.63166 7.95308 9.57062C7.99759 9.52785 8.06106 9.50556 8.11095 9.46764C8.20582 9.39545 8.29613 9.31735 8.38993 9.24342C8.48881 9.16531 8.58094 9.07887 8.69052 9.01403C8.87524 8.90469 9.06117 8.90332 9.25059 8.99811C9.26273 9.00425 9.27425 9.01123 9.28646 9.01737C9.34803 9.04755 9.40036 9.08645 9.43706 9.14757C9.46929 9.20148 9.51903 9.24509 9.53397 9.30871C9.54148 9.34078 9.54777 9.37551 9.54428 9.40781C9.53837 9.46355 9.52745 9.51951 9.51342 9.57373C9.47497 9.72213 9.43342 9.86977 9.37806 10.0731L9.37882 10.0717Z" fill="black"/>
  <path d="M3.44136 4.71144C3.56301 4.75332 3.68447 4.7948 3.80601 4.83697C3.86565 4.8575 3.89698 4.90147 3.90223 4.96334C3.9047 4.99473 3.9031 5.02637 3.90279 5.05812C3.90104 5.27721 3.91727 5.4952 3.96828 5.70856C3.99583 5.82424 4.02495 5.94112 4.1021 6.03804C4.12436 6.06595 4.14419 6.09799 4.15666 6.13116C4.20193 6.25128 4.30457 6.30984 4.40795 6.36335C4.55892 6.44154 4.72443 6.463 4.89194 6.47287C4.91892 6.47452 4.94573 6.48243 4.97254 6.4817C5.1764 6.47754 5.35465 6.40515 5.50885 6.27339C5.52968 6.25533 5.54474 6.22699 5.55453 6.2005C5.59409 6.09232 5.63513 5.98465 5.66747 5.87432C5.70966 5.73054 5.69061 5.58825 5.60466 5.46773C5.55492 5.39818 5.47661 5.34898 5.41099 5.29089C5.33837 5.22706 5.26405 5.16531 5.19345 5.09952C5.11271 5.0246 5.03177 4.94928 4.95714 4.86817C4.89047 4.79577 4.8137 4.73151 4.76855 4.63997C4.72096 4.54294 4.66213 4.45067 4.62142 4.35104C4.56521 4.21355 4.52096 4.07121 4.47171 3.9308C4.46862 3.92244 4.46752 3.9131 4.46621 3.90435C4.448 3.76832 4.42442 3.63243 4.41404 3.49579C4.40913 3.43004 4.42993 3.36286 4.43634 3.29604C4.45292 3.12254 4.51423 2.96178 4.59134 2.80911C4.65084 2.6912 4.71541 2.57306 4.81997 2.48526C4.83028 2.47652 4.83951 2.4661 4.85089 2.45907C4.99593 2.37226 5.12337 2.25849 5.27789 2.18657C5.28617 2.18278 5.29376 2.1771 5.30222 2.1747C5.42997 2.14102 5.53673 2.06128 5.65718 2.01215C5.74257 1.97716 5.83087 1.94915 5.91684 1.91535C6.10104 1.84302 6.29453 1.81405 6.48905 1.79174C6.61175 1.77755 6.73535 1.76269 6.8586 1.7623C6.94295 1.76214 7.03215 1.77393 7.11026 1.80346C7.20329 1.83881 7.29923 1.86187 7.39301 1.89217C7.56187 1.94632 7.71408 2.02957 7.86398 2.12432C7.99478 2.20717 8.08942 2.31011 8.15971 2.44615C8.19482 2.51398 8.25488 2.57183 8.31221 2.62508C8.42193 2.72757 8.48585 2.85343 8.52233 2.99609C8.52893 3.02226 8.53575 3.04882 8.54652 3.07344C8.60749 3.21158 8.66966 3.34912 8.73131 3.48717C8.77704 3.58953 8.78887 3.6998 8.80191 3.80948C8.80639 3.84753 8.80836 3.88606 8.80722 3.92415C8.80419 4.01106 8.76673 4.07649 8.68112 4.10542C8.56578 4.14438 8.45059 4.18404 8.33359 4.21743C8.27793 4.23346 8.21818 4.23446 8.16093 4.24562C8.11937 4.25355 8.0763 4.26096 8.03892 4.27896C7.9596 4.31668 7.87657 4.33324 7.79028 4.33607C7.70948 4.33845 7.6537 4.29901 7.62286 4.22567C7.57562 4.11317 7.53128 4.00001 7.50546 3.88027C7.50461 3.87599 7.50356 3.87132 7.50162 3.86733C7.40593 3.67676 7.34197 3.46923 7.20228 3.30234C7.17825 3.27382 7.14746 3.24662 7.11417 3.23052C7.0063 3.17945 6.89611 3.13322 6.78641 3.0865C6.64509 3.02657 6.49654 3.02621 6.34785 3.03974C6.23482 3.04995 6.14699 3.11131 6.06656 3.18683C5.96841 3.27916 5.94048 3.40561 5.91261 3.52611C5.89498 3.60334 5.90593 3.69108 5.95113 3.76803C5.99447 3.84169 6.02703 3.92159 6.06828 3.99652C6.14044 4.12722 6.23557 4.24228 6.32902 4.35741C6.39569 4.43944 6.46617 4.51912 6.53966 4.59486C6.59919 4.65617 6.66835 4.70786 6.72919 4.76829C6.82846 4.86652 6.92722 4.96522 7.02098 5.06885C7.08469 5.13924 7.13113 5.22126 7.14844 5.31848C7.17017 5.44046 7.19976 5.56082 7.22119 5.6827C7.2463 5.82475 7.23067 5.96273 7.19257 6.10328C7.14707 6.27114 7.10899 6.44056 7.03649 6.59913C7.00394 6.67056 6.96368 6.73833 6.92717 6.80774C6.9198 6.82146 6.91123 6.83477 6.90434 6.849C6.82123 7.01719 6.70126 7.15842 6.56822 7.28652C6.47396 7.3772 6.35775 7.43808 6.23246 7.48389C6.15239 7.51308 6.0761 7.55153 5.99149 7.56788C5.87656 7.59037 5.76172 7.61256 5.64698 7.63546C5.52657 7.65942 5.40497 7.65206 5.2833 7.65365C5.2296 7.65441 5.17592 7.6648 5.12228 7.6692C5.01831 7.67724 4.91547 7.66943 4.81295 7.65001C4.77115 7.64228 4.7274 7.64114 4.6852 7.64327C4.57549 7.64857 4.47035 7.63401 4.36815 7.5915C4.28079 7.55512 4.18976 7.52744 4.10056 7.49541C3.97774 7.45114 3.85461 7.40875 3.74084 7.34204C3.6771 7.30451 3.60651 7.27822 3.54054 7.24423C3.44131 7.19314 3.35534 7.12572 3.28935 7.03397C3.27251 7.01058 3.2519 6.98755 3.22824 6.97145C3.17263 6.93438 3.12852 6.88801 3.09175 6.83287C3.07552 6.8087 3.05649 6.78489 3.03374 6.7671C2.92631 6.682 2.86035 6.56803 2.80307 6.44709C2.78198 6.40233 2.75599 6.3602 2.7341 6.31583C2.71921 6.28581 2.70473 6.25461 2.69482 6.22266C2.62678 6.00576 2.61802 5.78537 2.6473 5.56049C2.66479 5.42679 2.66195 5.29041 2.67339 5.15596C2.68481 5.02349 2.6985 4.89114 2.71973 4.76006C2.73801 4.64622 2.86163 4.55802 2.97793 4.56917C3.02452 4.5736 3.07004 4.58695 3.11599 4.59712C3.12926 4.60003 3.14151 4.6059 3.15426 4.61029C3.2504 4.64339 3.34624 4.67638 3.44237 4.70947L3.44136 4.71144Z" fill="black"/>
  <path d="M12.0201 5.03908C12.0322 5.01935 12.0452 5.0036 12.052 4.9857C12.0906 4.88516 12.137 4.78727 12.132 4.67439C12.1293 4.61671 12.1709 4.58556 12.2264 4.60168C12.2688 4.6143 12.3106 4.63465 12.3482 4.65854C12.3812 4.67921 12.3905 4.71691 12.3824 4.75494C12.3642 4.8406 12.3462 4.92666 12.324 5.01129C12.3054 5.08286 12.281 5.15277 12.2582 5.22559C12.284 5.25105 12.3064 5.2727 12.3306 5.29666C12.3538 5.29033 12.3771 5.28113 12.4012 5.2778C12.4343 5.27326 12.4711 5.26369 12.5011 5.27301C12.6048 5.30539 12.7119 5.31606 12.8181 5.33337C12.8775 5.34319 12.9283 5.37196 12.9669 5.41977C12.9939 5.45328 13.0003 5.50525 12.9812 5.54049C12.9599 5.57997 12.9241 5.59054 12.8836 5.58389C12.8349 5.57578 12.7849 5.56883 12.7391 5.55142C12.6584 5.52066 12.5801 5.53518 12.4931 5.54802C12.4992 5.57636 12.5061 5.59966 12.5088 5.6235C12.5154 5.67685 12.5245 5.73042 12.5241 5.78371C12.5233 5.8495 12.4846 5.88862 12.4166 5.89043C12.3399 5.89256 12.2651 5.89867 12.1903 5.9174C12.1133 5.93669 12.0594 6.0094 12.0724 6.08753C12.0768 6.11426 12.0801 6.14128 12.0878 6.16687C12.0927 6.18279 12.1017 6.19985 12.1143 6.21049C12.2056 6.28769 12.2992 6.35906 12.4148 6.40088C12.5042 6.43332 12.5781 6.49556 12.6486 6.55966C12.7368 6.63981 12.826 6.71899 12.91 6.80297C12.9408 6.83383 12.9597 6.87718 12.9818 6.9163C13.0402 7.02037 13.0995 7.12406 13.1541 7.23019C13.2275 7.37291 13.2805 7.52357 13.3232 7.6783C13.3326 7.71242 13.3528 7.74359 13.3662 7.7768C13.38 7.81001 13.3952 7.84315 13.4042 7.87773C13.4217 7.94552 13.3895 7.99451 13.3199 8.00406C13.2921 8.00778 13.2606 8.00459 13.234 7.99511C13.0854 7.94196 12.938 7.88622 12.7902 7.83041C12.7146 7.80167 12.6391 7.77202 12.5646 7.74078C12.5274 7.72531 12.4927 7.7037 12.4558 7.6874C12.3589 7.64509 12.2603 7.60649 12.1645 7.56189C12.1182 7.5403 12.0766 7.50774 12.0329 7.48071C12.0071 7.46488 11.9805 7.45043 11.9484 7.43205C11.96 7.51106 11.9704 7.57904 11.9805 7.64721C11.9815 7.65388 11.9833 7.6604 11.9839 7.6673C11.9898 7.73699 11.9525 7.76505 11.8881 7.73919C11.8779 7.73502 11.8672 7.72933 11.8592 7.72198C11.7607 7.63295 11.6628 7.54348 11.5648 7.454C11.4729 7.36995 11.4288 7.25421 11.3671 7.15C11.3512 7.12295 11.3397 7.09277 11.3206 7.06827C11.3116 7.05657 11.2903 7.05418 11.2746 7.04778C11.2686 7.063 11.257 7.07827 11.2574 7.09365C11.2583 7.14507 11.2652 7.19654 11.2658 7.24785C11.266 7.26918 11.2613 7.29345 11.2505 7.31131C11.1307 7.51 11.0095 7.70787 10.8883 7.90579C10.8648 7.94416 10.841 7.98237 10.8145 8.01877C10.7633 8.08945 10.6838 8.09559 10.6079 8.09536C10.5469 8.09521 10.5163 8.04152 10.5061 7.98063C10.4856 7.85809 10.5229 7.74351 10.5504 7.62916C10.5666 7.56174 10.6145 7.50088 10.6747 7.45791C10.7397 7.41161 10.7755 7.35122 10.7805 7.27128C10.782 7.24659 10.7902 7.22256 10.793 7.19797C10.7948 7.18132 10.7923 7.16452 10.7912 7.13594C10.7503 7.167 10.7171 7.18909 10.6876 7.2151C10.5751 7.31443 10.4419 7.3821 10.3161 7.46125C10.2152 7.52506 10.1094 7.5809 10.0059 7.64054C9.86314 7.72251 9.70785 7.76588 9.54587 7.78818C9.50621 7.79341 9.46443 7.80592 9.4272 7.79841C9.31922 7.7765 9.25067 7.70181 9.21306 7.60292C9.16817 7.48456 9.1596 7.36083 9.19221 7.2373C9.24642 7.03063 9.35645 6.85844 9.52176 6.72351C9.67858 6.59564 9.83873 6.47156 9.99729 6.3456C10.0092 6.33609 10.0203 6.32499 10.0388 6.30809C9.9894 6.28747 9.94785 6.26553 9.90349 6.25259C9.8589 6.23955 9.82189 6.26896 9.78466 6.28835C9.75478 6.30393 9.72756 6.32709 9.69571 6.3357C9.65537 6.34672 9.61071 6.35423 9.57022 6.34827C9.53109 6.34243 9.50151 6.35117 9.46807 6.36752C9.40953 6.39582 9.35001 6.42412 9.28828 6.44336C9.19653 6.47184 9.10182 6.43459 9.05078 6.35828C9.01583 6.30643 9.01666 6.25861 9.05298 6.20806C9.11016 6.12883 9.18561 6.07647 9.27888 6.04752C9.32165 6.03404 9.36252 6.01459 9.40453 5.99853C9.46951 5.97376 9.53404 5.9482 9.59971 5.92532C9.62269 5.91731 9.64786 5.91368 9.67236 5.91184C9.73575 5.9061 9.79543 5.88982 9.85367 5.8624C9.90826 5.83674 9.96612 5.81716 10.0239 5.79887C10.0794 5.78115 10.0931 5.75102 10.0573 5.70551C10.041 5.68461 10.0198 5.66705 9.99926 5.64967C9.93253 5.59285 9.85503 5.54496 9.79998 5.47853C9.72756 5.39089 9.66159 5.29518 9.62716 5.1831C9.6142 5.1408 9.58629 5.10133 9.60495 5.04901C9.69594 5.01527 9.7814 5.05133 9.8664 5.0859C9.91145 5.10441 9.95444 5.12815 10.015 5.15762C10.0043 5.1211 10.0015 5.09923 9.9919 5.08098C9.94132 4.98294 9.93215 4.87359 9.90364 4.76951C9.88991 4.71966 9.88142 4.66827 9.86731 4.61861C9.8363 4.51103 9.84085 4.39944 9.83478 4.28982C9.82781 4.16164 9.82788 4.03323 9.83031 3.90464C9.83213 3.81366 9.852 3.72693 9.90591 3.64926C9.95839 3.57405 10.0498 3.5544 10.1252 3.60992C10.1724 3.64471 10.217 3.68266 10.2634 3.71854C10.3914 3.81804 10.5194 3.91753 10.6482 4.01594C10.7423 4.08782 10.826 4.16842 10.8859 4.27201C10.8995 4.29527 10.9142 4.31824 10.9307 4.33954C11.1052 4.56552 11.2032 4.82557 11.2715 5.09934C11.285 5.15376 11.3045 5.20694 11.3224 5.26021C11.3349 5.29804 11.3599 5.32488 11.3933 5.34733C11.4582 5.39094 11.518 5.38695 11.561 5.3201C11.6021 5.25629 11.6405 5.18819 11.6649 5.11658C11.7152 4.96932 11.8578 4.9195 11.9847 5.01264C11.9952 5.02058 12.0049 5.02821 12.0201 5.03908Z" fill="black"/>
</svg>
