<svg width="16" height="16" viewBox="0 0 16 16" fill="none" xmlns="http://www.w3.org/2000/svg">
  <style>
    @media (prefers-color-scheme: dark) {
      path { fill: #ffffff; }
    }
  </style>

  <path d="M15.6662 6.95422C15.6662 7.17912 15.6675 7.35627 15.6659 7.53373C15.6643 7.73617 15.6579 7.93831 15.6576 8.14044C15.6573 8.36788 15.6627 8.59532 15.663 8.82276C15.663 8.89077 15.6551 8.95878 15.6478 9.02647C15.6402 9.09891 15.6313 9.17103 15.6199 9.24284C15.6002 9.36842 15.5786 9.49369 15.5567 9.61895C15.5463 9.67937 15.5307 9.73916 15.5218 9.79957C15.4908 10.0121 15.4102 10.2114 15.3575 10.4183C15.315 10.5841 15.2595 10.7451 15.1855 10.8991C15.0789 11.1209 14.9574 11.3334 14.8074 11.5302C14.7388 11.62 14.6868 11.7228 14.6313 11.8219C14.5596 11.9493 14.4879 12.0781 14.3746 12.173C14.2423 12.2837 14.1535 12.4235 14.072 12.5715C14.0415 12.6269 14.0006 12.6769 13.9644 12.7291C13.8273 12.928 13.6709 13.1118 13.5085 13.2899C13.3568 13.4563 13.2027 13.6205 13.0494 13.7856C13.0355 13.8005 13.0202 13.8144 13.0063 13.8293C12.9441 13.8957 12.8838 13.9637 12.8191 14.0279C12.7661 14.0804 12.7087 14.1288 12.6519 14.1779C12.5761 14.2433 12.5012 14.3104 12.4225 14.3724C12.2293 14.5242 12.0351 14.6751 11.8169 14.7918C11.6823 14.8636 11.5504 14.9411 11.4222 15.0234C11.3368 15.0781 11.2499 15.1284 11.1531 15.154C11.0408 15.1835 10.9415 15.2382 10.8425 15.2935C10.7702 15.334 10.6957 15.3669 10.6151 15.3843C10.4491 15.4198 10.2943 15.4874 10.135 15.5428C9.96087 15.6032 9.78606 15.663 9.60808 15.7108C9.39044 15.7693 9.16994 15.8174 8.94976 15.8655C8.86315 15.8844 8.774 15.8908 8.6858 15.9025C8.54811 15.9208 8.41041 15.9398 8.2724 15.9569C8.20007 15.966 8.12742 15.9752 8.05476 15.9787C7.85425 15.9879 7.65374 15.9983 7.45323 15.9999C7.28255 16.0012 7.11186 15.9907 6.94086 15.9863C6.80951 15.9831 6.68419 15.9477 6.5576 15.9186C6.39548 15.8813 6.23368 15.8427 6.07314 15.7987C5.97479 15.7715 5.87961 15.7326 5.78285 15.6994C5.75493 15.6899 5.72669 15.6795 5.69751 15.675C5.63152 15.6655 5.56743 15.6513 5.51064 15.614C5.50302 15.6092 5.49414 15.6054 5.48558 15.6035C5.35074 15.5779 5.23938 15.4998 5.11787 15.4435C5.02745 15.4014 4.93291 15.3672 4.84058 15.3299C4.83836 15.329 4.83582 15.329 4.83424 15.3277C4.74064 15.2616 4.62706 15.2366 4.5284 15.1803C4.41958 15.1183 4.30853 15.0604 4.19971 14.999C4.07884 14.931 3.95669 14.8678 3.85263 14.7716C3.72731 14.6561 3.58867 14.5552 3.45795 14.4458C3.41449 14.4094 3.37515 14.3676 3.33613 14.3265C3.29234 14.28 3.25364 14.2291 3.20827 14.1845C3.14704 14.1238 3.07978 14.069 3.01823 14.0089C2.93225 13.9245 2.84818 13.8381 2.76474 13.7508C2.71112 13.6948 2.66226 13.6344 2.60833 13.5794C2.5766 13.5471 2.53853 13.5215 2.50363 13.4927C2.30756 13.331 2.15908 13.1305 2.03059 12.9141C1.8634 12.6326 1.69683 12.3508 1.53217 12.068C1.47697 11.9734 1.43382 11.8731 1.41003 11.7655C1.40717 11.7523 1.40463 11.7383 1.39892 11.7263C1.33706 11.5897 1.2771 11.4521 1.21174 11.3173C1.11688 11.1209 1.01662 10.9273 0.929694 10.7267C0.864338 10.5755 0.811355 10.4221 0.76789 10.2643C0.743461 10.1747 0.718397 10.0862 0.68794 9.99791C0.652724 9.89605 0.646379 9.78439 0.622584 9.6781C0.59181 9.54113 0.585465 9.39974 0.536289 9.26562C0.477278 9.10429 0.462367 8.93316 0.445552 8.76329C0.417316 8.48049 0.3913 8.19738 0.367188 7.91427C0.357988 7.80798 0.355132 7.70106 0.352594 7.59414C0.345614 7.29174 0.342442 6.98964 0.334193 6.68723C0.328165 6.47277 0.355767 6.26051 0.36814 6.04731C0.376389 5.90433 0.387176 5.76135 0.399549 5.61868C0.405894 5.54403 0.419537 5.47001 0.427468 5.39536C0.433496 5.33905 0.435082 5.28211 0.439841 5.22549C0.445552 5.15779 0.443966 5.08789 0.46078 5.02272C0.498217 4.88006 0.544855 4.73993 0.58832 4.59885C0.613701 4.51628 0.640033 4.43436 0.665732 4.35211C0.67176 4.3325 0.674932 4.31162 0.683816 4.29359C0.728232 4.20407 0.77487 4.11582 0.819287 4.02629C0.852599 3.95923 0.884325 3.89154 0.914782 3.82321C0.968717 3.70301 1.01884 3.58122 1.07468 3.46197C1.11815 3.36928 1.16605 3.27913 1.21491 3.18898C1.23744 3.14722 1.26694 3.10895 1.29296 3.06909C1.34277 2.99317 1.39226 2.91694 1.44207 2.84102C1.53186 2.70437 1.61339 2.56202 1.73364 2.44751C1.75965 2.42283 1.7771 2.38962 1.79931 2.36083C1.89036 2.24443 1.95382 2.10809 2.062 2.00465C2.10166 1.96701 2.14354 1.93189 2.18478 1.89583C2.19335 1.88824 2.2054 1.88318 2.21048 1.87401C2.2679 1.76772 2.37609 1.71996 2.46746 1.65416C2.57406 1.57698 2.68986 1.51245 2.79678 1.43526C3.02489 1.27046 3.27712 1.14804 3.52077 1.01012C3.65561 0.933884 3.78696 0.851639 3.92116 0.774455C3.95606 0.75421 3.9954 0.741557 4.03315 0.726374C4.05821 0.716251 4.08486 0.708976 4.10961 0.697272C4.26634 0.622935 4.42973 0.565996 4.59692 0.519812C4.79236 0.46572 4.98684 0.408782 5.18354 0.359751C5.50398 0.280037 5.82536 0.201271 6.15373 0.159516C6.32473 0.137689 6.49669 0.121557 6.66769 0.0994139C6.84155 0.0769547 7.0151 0.0497507 7.18864 0.0253935C7.21561 0.0215976 7.24321 0.0228628 7.27049 0.0225465C7.52811 0.0225465 7.78604 0.0228629 8.04366 0.0219139C8.07951 0.0219139 8.11536 0.0130567 8.15153 0.00926079C8.18103 0.0057812 8.21054 0.00103623 8.23973 0.00103623C8.59094 0.000403573 8.94246 -0.00149436 9.29367 0.00230156C9.38885 0.00325054 9.48371 0.0244444 9.57857 0.0339342C9.7169 0.0478526 9.85554 0.0570261 9.99323 0.0734751C10.0792 0.0835975 10.1642 0.100995 10.2486 0.120608C10.2994 0.132312 10.3476 0.153506 10.3968 0.17122C10.4415 0.187353 10.485 0.208547 10.5307 0.220251C10.6449 0.249669 10.7518 0.302496 10.8733 0.310088C10.9346 0.3142 10.9945 0.346149 11.0542 0.367659C11.0922 0.381261 11.1287 0.399924 11.1668 0.414792C11.2728 0.45623 11.3774 0.503047 11.486 0.535945C11.6738 0.5932 11.8552 0.665639 12.0383 0.735547C12.1776 0.78869 12.3077 0.857649 12.4323 0.938629C12.4933 0.97817 12.5599 1.00854 12.6227 1.04491C12.7331 1.1085 12.8457 1.16923 12.952 1.23882C13.091 1.32993 13.2201 1.43336 13.3381 1.55199C13.4584 1.67282 13.5891 1.78322 13.7119 1.90153C13.861 2.04546 14.0022 2.19698 14.1351 2.35609C14.1874 2.41872 14.2468 2.47566 14.3023 2.53576C14.3162 2.55063 14.3321 2.56518 14.3416 2.58258C14.4108 2.71291 14.5152 2.81571 14.6091 2.92674C14.69 3.02259 14.7642 3.12097 14.8134 3.23864C14.8607 3.35094 14.9222 3.45722 14.979 3.56541C15.1249 3.84346 15.2756 4.11866 15.3724 4.41917C15.4137 4.5476 15.4413 4.67793 15.4619 4.81078C15.4812 4.93637 15.5098 5.06068 15.5304 5.18595C15.5739 5.45103 15.6043 5.71706 15.6158 5.98562C15.6227 6.14695 15.6411 6.30733 15.6491 6.46865C15.6579 6.6458 15.6608 6.82326 15.6649 6.95327L15.6662 6.95422ZM7.97608 1.10407C7.88249 1.10407 7.7889 1.10691 7.69562 1.10343C7.40501 1.09331 7.11694 1.11957 6.83077 1.16702C6.77905 1.17556 6.72766 1.186 6.67594 1.19359C6.54301 1.21257 6.40881 1.22427 6.27746 1.25053C6.15595 1.27488 6.03476 1.28849 5.91166 1.29418C5.8555 1.29671 5.79903 1.30873 5.74414 1.3217C5.66895 1.33973 5.59503 1.36219 5.52079 1.38433C5.49922 1.39066 5.47987 1.403 5.45893 1.41185C5.4345 1.42198 5.41038 1.43495 5.38469 1.44001C5.24382 1.46816 5.10359 1.49853 4.9732 1.56243C4.94052 1.57824 4.90626 1.59121 4.87136 1.60165C4.74064 1.64119 4.6093 1.67947 4.47827 1.71774C4.35993 1.75254 4.24794 1.79809 4.14673 1.87148C3.96018 2.00592 3.76443 2.12707 3.5598 2.23272C3.53981 2.24284 3.52141 2.25771 3.50523 2.27321C3.44114 2.33426 3.38086 2.39943 3.31423 2.45763C3.22508 2.53545 3.12927 2.60599 3.04012 2.68349C2.9735 2.74169 2.91068 2.80464 2.84945 2.86885C2.81518 2.9046 2.7879 2.94699 2.75744 2.98653C2.74221 3.00646 2.72603 3.02544 2.71144 3.04568C2.64672 3.13583 2.58263 3.2263 2.51791 3.31646C2.47825 3.37181 2.43352 3.42401 2.39989 3.48253C2.35579 3.55908 2.32057 3.64038 2.28123 3.71946C2.2752 3.73179 2.26727 3.74287 2.26093 3.75489C2.22983 3.8153 2.19906 3.87572 2.16797 3.93646C2.15972 3.95259 2.1521 3.96904 2.14386 3.98517C2.108 4.0535 2.07184 4.12151 2.0363 4.18984C2.00997 4.24013 1.98332 4.29011 1.95857 4.34072C1.94588 4.36698 1.93224 4.39418 1.92621 4.42265C1.89956 4.55171 1.88085 4.68204 1.87767 4.81426C1.87704 4.84052 1.86689 4.86677 1.85927 4.8924C1.85039 4.92276 1.83738 4.95218 1.83008 4.98287C1.81612 5.04012 1.81041 5.09991 1.79169 5.15558C1.74062 5.30742 1.70857 5.46147 1.69715 5.62185C1.68383 5.80532 1.6594 5.98784 1.63814 6.17067C1.63053 6.23615 1.61752 6.30068 1.60895 6.36585C1.6007 6.4288 1.58992 6.49206 1.58928 6.55533C1.58706 6.84413 1.58801 7.13294 1.58833 7.42175C1.58833 7.44231 1.58643 7.46382 1.59245 7.4828C1.61466 7.55397 1.60863 7.62673 1.60895 7.69916C1.60927 7.8083 1.60514 7.91775 1.61022 8.02656C1.61561 8.14866 1.61149 8.27077 1.63243 8.39319C1.65908 8.54945 1.67716 8.7092 1.67748 8.86768C1.67748 9.05304 1.72919 9.22607 1.77076 9.40195C1.80724 9.55632 1.85388 9.70879 1.89766 9.86126C1.90623 9.89131 1.92114 9.92009 1.93605 9.94793C1.96175 9.99601 1.99347 10.0412 2.01632 10.0903C2.06517 10.1953 2.11213 10.3013 2.15591 10.4082C2.24125 10.6166 2.34214 10.8169 2.46175 11.0083C2.50998 11.0851 2.55471 11.1648 2.59373 11.2471C2.67463 11.4179 2.76283 11.5843 2.87102 11.7399C2.88657 11.7624 2.90053 11.7858 2.91322 11.8098C2.98174 11.9386 3.06233 12.0588 3.16449 12.1644C3.18447 12.1853 3.19748 12.2128 3.21303 12.2378C3.24539 12.2897 3.27712 12.3416 3.30948 12.3935C3.31772 12.4067 3.32693 12.4194 3.33486 12.4327C3.35929 12.4735 3.378 12.5194 3.40846 12.5548C3.51411 12.6769 3.62388 12.7952 3.73207 12.9151C3.77014 12.9571 3.80821 12.9995 3.84597 13.0419C3.90212 13.1046 3.95479 13.1707 4.01475 13.2295C4.13023 13.3424 4.24984 13.4513 4.3685 13.561C4.39166 13.5825 4.41894 13.5996 4.44369 13.6195C4.50587 13.6692 4.57281 13.7144 4.62833 13.7707C4.76444 13.9087 4.92402 14.0121 5.09122 14.106C5.14261 14.1351 5.19687 14.1595 5.24922 14.187C5.3133 14.2206 5.37739 14.255 5.44116 14.2895C5.54681 14.3468 5.6404 14.4274 5.75969 14.4588C5.80791 14.4714 5.85994 14.4724 5.90563 14.4904C6.01223 14.5328 6.12295 14.5571 6.234 14.5821C6.33393 14.6046 6.43229 14.634 6.53286 14.6533C6.68451 14.6827 6.83426 14.7235 6.99003 14.733C7.0465 14.7365 7.10171 14.7564 7.15818 14.7624C7.33267 14.7805 7.50717 14.8001 7.6823 14.8096C7.84537 14.8184 8.00971 14.8364 8.17152 14.7934C8.18897 14.7887 8.20768 14.7884 8.22577 14.7887C8.29683 14.7903 8.366 14.7865 8.43484 14.7631C8.47989 14.7476 8.52812 14.7425 8.57507 14.7333C8.71118 14.7068 8.8476 14.684 8.98307 14.6542C9.1471 14.6182 9.29367 14.5372 9.45357 14.4907C9.59951 14.4483 9.74038 14.3879 9.8841 14.337C9.9742 14.305 10.0672 14.28 10.1557 14.2443C10.3238 14.176 10.4821 14.0861 10.6582 14.0339C10.828 13.9833 10.9748 13.8818 11.1148 13.7786C11.2302 13.6936 11.3505 13.6157 11.4644 13.5288C11.5348 13.475 11.604 13.4193 11.6741 13.3646C11.735 13.3168 11.7934 13.2656 11.8578 13.2229C11.9669 13.1504 12.0634 13.0644 12.15 12.9676C12.2302 12.8778 12.3013 12.7794 12.3844 12.6924C12.4803 12.5921 12.552 12.4719 12.6532 12.3761C12.6915 12.3397 12.7119 12.2846 12.7442 12.241C12.8391 12.1132 12.9358 11.9867 13.0323 11.8598C13.0599 11.8237 13.0926 11.7912 13.1173 11.7532C13.2277 11.5833 13.335 11.4119 13.445 11.242C13.5069 11.1468 13.5745 11.0551 13.6351 10.9589C13.715 10.8321 13.7924 10.7033 13.8676 10.5733C13.9168 10.4889 13.96 10.4012 14.0063 10.3155C14.0517 10.2314 14.0929 10.1447 14.1449 10.065C14.1928 9.99127 14.2287 9.91377 14.2493 9.82963C14.288 9.67083 14.3235 9.5114 14.3603 9.35229C14.3721 9.30136 14.386 9.25106 14.3956 9.1995C14.4209 9.0657 14.4463 8.93189 14.4685 8.79777C14.4755 8.75538 14.4631 8.70888 14.4755 8.66902C14.5028 8.5795 14.4993 8.48966 14.4984 8.39888C14.4942 8.07148 14.4933 7.74408 14.4879 7.41668C14.486 7.29869 14.48 7.18039 14.4689 7.06271C14.4533 6.89728 14.4365 6.73247 14.452 6.56608C14.4539 6.54615 14.4504 6.52528 14.4485 6.50503C14.4441 6.4579 14.4393 6.41076 14.4336 6.36363C14.4263 6.30068 14.4206 6.23742 14.4098 6.1751C14.3975 6.10361 14.3724 6.03339 14.3673 5.96158C14.3429 5.63007 14.2525 5.31374 14.1573 4.99773C14.1154 4.85855 14.0694 4.72032 14.0348 4.57955C14.0025 4.44796 13.9536 4.32459 13.8898 4.20597C13.8565 4.14397 13.8178 4.08418 13.7909 4.01934C13.7154 3.83776 13.6237 3.66726 13.4987 3.51353C13.4244 3.42211 13.36 3.32215 13.2953 3.22346C13.2414 3.14121 13.183 3.0634 13.1126 2.99475C13.0884 2.97134 13.0713 2.94098 13.051 2.91346C13.0053 2.85114 12.9625 2.78661 12.9136 2.72714C12.7813 2.56613 12.6125 2.44276 12.4565 2.30706C12.3232 2.19128 12.17 2.09765 12.0247 1.99579C11.978 1.96321 11.9292 1.93379 11.8787 1.90785C11.7813 1.85819 11.6817 1.81264 11.584 1.76393C11.4679 1.70635 11.3521 1.64783 11.2369 1.58805C11.1823 1.55989 11.1316 1.5232 11.0751 1.49979C10.966 1.45487 10.8549 1.41407 10.7426 1.37674C10.5891 1.32581 10.4326 1.28374 10.2708 1.26603C10.176 1.25559 10.0811 1.24388 9.98625 1.23155C9.92756 1.22396 9.8695 1.21099 9.81049 1.20498C9.73562 1.19707 9.66074 1.19359 9.58555 1.18853C9.49006 1.18188 9.39488 1.17556 9.29938 1.16923C9.18104 1.16132 9.0627 1.15658 8.94468 1.14424C8.75433 1.12463 8.56524 1.09489 8.37266 1.10249C8.24068 1.10755 8.10838 1.10407 7.97608 1.10407Z" fill="#111111"></path>
  <path d="M10.2053 9.26716C10.1974 9.39148 10.1913 9.57337 10.1729 9.75399C10.1447 10.032 10.1054 10.3085 10.0911 10.5881C10.0828 10.7488 10.0518 10.9083 10.0311 11.0683C10.027 11.1 10.0226 11.1316 10.0219 11.1632C10.0213 11.2043 10.0425 11.2281 10.0803 11.2347C10.1295 11.2436 10.1872 11.2176 10.2148 11.174C10.2538 11.1126 10.291 11.05 10.3322 10.9899C10.3671 10.9396 10.4026 10.8883 10.4448 10.8444C10.5581 10.7267 10.6339 10.5828 10.7307 10.4537C10.7919 10.3718 10.8481 10.2861 10.9115 10.206C11.0321 10.0545 11.1546 9.90456 11.2491 9.73501C11.3189 9.61006 11.3827 9.48163 11.4506 9.35542C11.5162 9.23332 11.5841 9.11248 11.6511 8.99133C11.6542 8.98532 11.6596 8.98025 11.6615 8.97393C11.7158 8.80248 11.8275 8.65665 11.8773 8.48172C11.9261 8.30932 11.9896 8.14136 12.0461 7.97117C12.0632 7.91961 12.0752 7.86647 12.0952 7.81617C12.1146 7.76809 12.1371 7.72032 12.1654 7.67667C12.2304 7.5764 12.3354 7.54065 12.4455 7.52926C12.5657 7.51661 12.6882 7.52009 12.8037 7.56153C12.9404 7.61056 13.0787 7.65959 13.1993 7.74405C13.2777 7.79909 13.3303 7.87596 13.3678 7.96295C13.3859 8.00502 13.3792 8.04741 13.3662 8.08979C13.3043 8.29446 13.2453 8.49975 13.1803 8.70347C13.1422 8.82241 13.093 8.93755 13.0531 9.05586C13.0137 9.17195 12.982 9.29025 12.9433 9.40666C12.909 9.50978 12.8728 9.61291 12.8316 9.7135C12.7269 9.96878 12.5613 10.1921 12.4474 10.4429C12.3421 10.6751 12.1942 10.8788 12.0245 11.068C11.9639 11.1357 11.9093 11.2091 11.8548 11.2815C11.6847 11.5064 11.4947 11.7162 11.3382 11.9518C11.2869 12.029 11.2224 12.0983 11.1603 12.1676C11.0629 12.2761 10.9677 12.3858 10.8947 12.513C10.8792 12.5402 10.8566 12.5642 10.8344 12.5867C10.6523 12.7683 10.4699 12.9495 10.2865 13.1298C10.2659 13.1504 10.2412 13.1691 10.2148 13.1811C10.0908 13.2386 9.99274 13.3307 9.89026 13.4174C9.80873 13.4863 9.72085 13.5477 9.63836 13.6157C9.56475 13.6761 9.494 13.7403 9.42262 13.8039C9.34933 13.8694 9.27509 13.9333 9.17357 13.951C9.16691 13.9523 9.15961 13.9535 9.15422 13.9573C9.06475 14.0165 8.96386 14.0124 8.86329 14.0108C8.836 14.0105 8.80808 14.0105 8.78143 14.0159C8.73353 14.0253 8.69768 14.0105 8.66563 13.9754C8.61646 13.921 8.58568 13.8621 8.58917 13.7853C8.59361 13.6945 8.58505 13.6031 8.59139 13.5126C8.60377 13.3269 8.62217 13.1415 8.63835 12.9562C8.64565 12.8723 8.65707 12.7888 8.65961 12.705C8.66309 12.5867 8.67547 12.47 8.69133 12.3526C8.70973 12.2179 8.71544 12.0809 8.71957 11.9449C8.72528 11.7541 8.72052 11.5627 8.7275 11.372C8.73194 11.2543 8.74812 11.137 8.7624 11.0196C8.77096 10.9488 8.73543 10.9136 8.66722 10.9348C8.64406 10.9421 8.62027 10.9541 8.60186 10.9699C8.47274 11.0819 8.35567 11.2037 8.27033 11.3546C8.23606 11.4153 8.19101 11.471 8.14628 11.5254C8.04253 11.651 7.97813 11.8006 7.88612 11.9332C7.83948 12.0002 7.78936 12.0648 7.73955 12.1296C7.56473 12.357 7.4042 12.5943 7.25826 12.8413C7.23288 12.8844 7.20718 12.9274 7.17799 12.9679C7.07901 13.1055 7.01587 13.2611 6.94956 13.4152C6.908 13.511 6.87374 13.61 6.83281 13.7062C6.7922 13.8017 6.73827 13.8896 6.64531 13.9425C6.5441 13.9997 6.44099 14.0535 6.31599 14.0181C6.24207 13.9972 6.16466 13.988 6.09042 13.9675C5.97874 13.9365 5.91592 13.8507 5.86262 13.7549C5.77823 13.6043 5.78014 13.4401 5.78965 13.2766C5.79314 13.2165 5.81694 13.1573 5.83439 13.0985C5.86865 12.9834 5.9026 12.8676 5.94162 12.754C5.96066 12.6987 5.98699 12.6446 6.01808 12.5949C6.09296 12.4757 6.13325 12.3434 6.17576 12.2112C6.19385 12.1552 6.21383 12.0999 6.23414 12.0445C6.26237 11.9676 6.29061 11.8911 6.32043 11.8152C6.35279 11.7329 6.38928 11.6523 6.41974 11.5691C6.46511 11.4454 6.52316 11.3233 6.54569 11.1955C6.57234 11.0427 6.62215 10.8959 6.6469 10.7438C6.67164 10.5916 6.71098 10.4423 6.71606 10.2867C6.72336 10.0687 6.74271 9.85142 6.75128 9.63347C6.75699 9.49049 6.75191 9.34719 6.75286 9.2039C6.75381 9.04921 6.75445 8.89453 6.75857 8.74016C6.75952 8.69746 6.76492 8.65222 6.78078 8.61363C6.81441 8.53202 6.81885 8.44566 6.8344 8.3612C6.84201 8.31882 6.8509 8.27674 6.86327 8.23562C6.88262 8.17077 6.91054 8.10909 6.92894 8.04329C6.94956 7.96801 6.99557 7.89968 7.05553 7.84401C7.15769 7.74943 7.25794 7.65295 7.40071 7.62068C7.49684 7.59886 7.5917 7.61119 7.68498 7.63207C7.71575 7.63903 7.74018 7.67066 7.76905 7.68806C7.91785 7.77758 7.98257 7.92467 8.03841 8.07777C8.05617 8.1268 8.07077 8.1771 8.08885 8.22581C8.12248 8.31628 8.14088 8.4077 8.12819 8.50576C8.11963 8.57314 8.12248 8.6421 8.12375 8.71011C8.12597 8.85088 8.13295 8.99164 8.13359 9.13241C8.13422 9.22762 8.12756 9.32284 8.12407 9.41805C8.12343 9.43387 8.12216 9.45 8.12248 9.46582C8.12438 9.58792 8.23289 9.65688 8.34107 9.59678C8.4058 9.56103 8.46354 9.51042 8.51842 9.46012C8.58188 9.40192 8.63676 9.33644 8.67737 9.25736C8.70593 9.202 8.75923 9.15993 8.79444 9.10742C8.86138 9.00746 8.92198 8.90339 8.98734 8.80216C9.05618 8.69524 9.11583 8.58263 9.19927 8.48489C9.33982 8.32008 9.51716 8.25776 9.72941 8.28592C9.74306 8.28781 9.75638 8.29066 9.77002 8.29256C9.83887 8.3011 9.90169 8.32103 9.95689 8.36721C10.0054 8.40802 10.0673 8.43332 10.1025 8.489C10.1203 8.51715 10.1377 8.54815 10.145 8.5801C10.1577 8.63514 10.1656 8.69208 10.1701 8.74839C10.1821 8.90244 10.191 9.0568 10.205 9.26874L10.2053 9.26716Z" fill="#111111"></path>
  <path d="M2.76522 6.10622C2.8953 6.10622 3.02506 6.1059 3.15513 6.10622C3.2189 6.10622 3.26332 6.13785 3.2887 6.19511C3.30139 6.22421 3.31028 6.25489 3.32043 6.28526C3.39086 6.49467 3.47811 6.69712 3.59708 6.88375C3.66148 6.98497 3.72779 7.08683 3.83344 7.15389C3.8639 7.17319 3.8934 7.19723 3.91625 7.22475C3.99905 7.32439 4.11644 7.34654 4.23287 7.36362C4.40293 7.38861 4.56822 7.35476 4.73161 7.30921C4.75794 7.30193 4.78618 7.30067 4.81156 7.29118C5.00509 7.22032 5.15166 7.09284 5.25573 6.91665C5.26968 6.89261 5.27476 6.86066 5.2754 6.83219C5.27762 6.7161 5.28142 6.6 5.27603 6.48423C5.26905 6.33334 5.20401 6.20396 5.08218 6.11729C5.01175 6.06731 4.9207 6.04612 4.83884 6.01227C4.74842 5.97526 4.65705 5.94078 4.5679 5.90124C4.46606 5.85632 4.3639 5.81109 4.26587 5.75826C4.1783 5.71113 4.08376 5.67507 4.01047 5.60263C3.93306 5.52576 3.84645 5.45712 3.77475 5.3755C3.67576 5.26289 3.58661 5.14174 3.49334 5.02407C3.48762 5.01711 3.4835 5.00856 3.47938 5.00066C3.41719 4.87697 3.34993 4.75519 3.29505 4.62834C3.26871 4.56729 3.26649 4.49643 3.25063 4.43064C3.20939 4.25982 3.2151 4.08647 3.23857 3.91566C3.25666 3.78375 3.2795 3.64994 3.35057 3.53195C3.35755 3.52025 3.36294 3.50728 3.37151 3.49684C3.4816 3.36651 3.56599 3.21626 3.69004 3.097C3.6967 3.09068 3.70209 3.08277 3.70939 3.07771C3.82043 3.00369 3.89626 2.89266 3.99524 2.8063C4.06536 2.74493 4.14055 2.68926 4.21162 2.62884C4.3639 2.49946 4.53935 2.40836 4.71797 2.32327C4.83059 2.26949 4.94386 2.21477 5.06156 2.17396C5.14215 2.14612 5.2313 2.12809 5.31569 2.13062C5.41626 2.13379 5.51556 2.1243 5.61518 2.1224C5.79444 2.1186 5.96734 2.14802 6.14184 2.18914C6.29412 2.22521 6.41849 2.29227 6.53048 2.39887C6.58632 2.45201 6.66278 2.48744 6.73512 2.51939C6.87376 2.58107 6.97624 2.68008 7.05809 2.80408C7.073 2.82686 7.08823 2.84995 7.10663 2.86988C7.21038 2.98154 7.31507 3.09226 7.41945 3.2036C7.49686 3.28617 7.54445 3.38739 7.59299 3.48767C7.60981 3.52246 7.6244 3.55852 7.63582 3.59522C7.66152 3.67904 7.64725 3.7537 7.57491 3.80937C7.47751 3.88434 7.38043 3.95994 7.27954 4.03017C7.23163 4.0637 7.17484 4.08426 7.12376 4.11368C7.08664 4.13487 7.04794 4.15606 7.01812 4.18548C6.95466 4.24748 6.88074 4.2905 6.7992 4.3215C6.72274 4.35029 6.65644 4.33099 6.60282 4.27121C6.52065 4.17947 6.44102 4.08616 6.37693 3.9805C6.37471 3.97671 6.37217 3.9726 6.369 3.96943C6.21481 3.81918 6.08537 3.64235 5.89691 3.5291C5.86455 3.50981 5.82616 3.49399 5.78904 3.48956C5.66912 3.47628 5.54856 3.46837 5.42832 3.45983C5.27349 3.44907 5.13136 3.49747 4.99367 3.55916C4.88897 3.60597 4.8252 3.69328 4.77317 3.79166C4.70972 3.91186 4.72463 4.04155 4.73764 4.16555C4.7462 4.24495 4.78554 4.32498 4.85407 4.3835C4.91974 4.43949 4.97717 4.50497 5.04126 4.56286C5.15325 4.66377 5.28206 4.74222 5.40928 4.8213C5.50002 4.87761 5.59361 4.93043 5.68879 4.97851C5.76588 5.01742 5.84901 5.04399 5.92705 5.08164C6.05427 5.14269 6.18118 5.20437 6.30491 5.27238C6.38898 5.31857 6.46037 5.38151 6.50891 5.4685C6.56982 5.57764 6.63772 5.68266 6.69832 5.79179C6.76907 5.91895 6.79952 6.05561 6.80936 6.20207C6.8211 6.377 6.84045 6.55097 6.82332 6.7259C6.8157 6.80467 6.79952 6.88248 6.78747 6.96062C6.78493 6.97612 6.78112 6.99162 6.77922 7.00743C6.7551 7.19502 6.68689 7.369 6.60187 7.53475C6.54159 7.65211 6.45053 7.74827 6.34584 7.83305C6.27889 7.88714 6.21862 7.94882 6.14311 7.99216C6.04063 8.05131 5.93816 8.11015 5.836 8.16962C5.72876 8.23193 5.61011 8.26483 5.49431 8.30627C5.44323 8.32462 5.39532 8.35214 5.34551 8.37397C5.24875 8.41572 5.14786 8.44198 5.04348 8.45716C5.00096 8.46349 4.95877 8.47677 4.91911 8.49259C4.816 8.53371 4.71067 8.55427 4.59899 8.54731C4.5035 8.5413 4.40737 8.54478 4.31155 8.54352C4.17957 8.54162 4.04791 8.54162 3.9172 8.51536C3.84391 8.5005 3.76777 8.4986 3.69353 8.48784C3.58185 8.47171 3.47747 8.43565 3.3842 8.36985C3.3604 8.35309 3.33312 8.3379 3.3052 8.33031C3.23984 8.31323 3.18242 8.2835 3.12912 8.24301C3.10564 8.22529 3.07963 8.20884 3.05202 8.19935C2.92131 8.15349 2.82074 8.0665 2.7262 7.97002C2.6913 7.93427 2.65259 7.90264 2.61706 7.86753C2.59295 7.8438 2.56883 7.81881 2.54885 7.79161C2.41242 7.60719 2.33152 7.4 2.28552 7.17604C2.25823 7.04286 2.21065 6.9138 2.17733 6.78189C2.14465 6.65188 2.1142 6.52124 2.09135 6.38933C2.07137 6.27482 2.16052 6.15019 2.27537 6.12267C2.32137 6.1116 2.36928 6.10938 2.41655 6.104C2.43019 6.10242 2.44383 6.104 2.45747 6.104C2.56027 6.104 2.66274 6.104 2.76554 6.104L2.76522 6.10622Z" fill="#111111"></path>
  <path d="M11.0744 3.60364C11.0795 3.58086 11.0868 3.56157 11.0874 3.54227C11.0912 3.43377 11.1033 3.32527 11.0614 3.2193C11.0398 3.16521 11.0693 3.12187 11.1277 3.11903C11.1725 3.11713 11.2191 3.12282 11.2629 3.13326C11.3013 3.14212 11.3225 3.17502 11.3273 3.21392C11.3381 3.30155 11.3492 3.38949 11.3558 3.47742C11.3615 3.55176 11.3612 3.62641 11.3634 3.70328C11.3964 3.7191 11.425 3.73238 11.4561 3.74725C11.4761 3.73365 11.4954 3.7172 11.5173 3.70613C11.5475 3.69095 11.5795 3.66975 11.6112 3.6688C11.721 3.66564 11.827 3.64065 11.9342 3.6223C11.9942 3.61218 12.0522 3.62294 12.1049 3.65583C12.1417 3.67893 12.1648 3.72637 12.1582 3.76623C12.1509 3.81083 12.1201 3.83266 12.0792 3.83962C12.03 3.84784 11.9799 3.85765 11.9304 3.85607C11.8431 3.85322 11.773 3.89276 11.694 3.93357C11.7093 3.95856 11.7235 3.97849 11.734 4.00031C11.7578 4.04903 11.7841 4.09711 11.8013 4.14804C11.8222 4.21099 11.7981 4.26097 11.7337 4.28501C11.661 4.31221 11.5916 4.34258 11.5262 4.38497C11.4589 4.42862 11.4313 4.51561 11.4694 4.58583C11.4824 4.60987 11.4945 4.63455 11.5103 4.65637C11.5202 4.66998 11.5344 4.68326 11.55 4.68927C11.6626 4.73293 11.7756 4.77025 11.8999 4.77215C11.9961 4.77373 12.0871 4.80884 12.1756 4.8468C12.2864 4.89425 12.3977 4.94044 12.5056 4.99295C12.5452 5.01224 12.5776 5.04735 12.6116 5.07741C12.7017 5.15744 12.7924 5.23683 12.8796 5.32003C12.9967 5.43201 13.097 5.55822 13.1887 5.69171C13.209 5.72113 13.2385 5.74422 13.2623 5.77143C13.2864 5.79863 13.3118 5.8252 13.3317 5.85525C13.3708 5.91409 13.3562 5.97135 13.2927 6.00329C13.2673 6.01595 13.2362 6.02322 13.2077 6.02291C13.0481 6.02101 12.8888 6.01626 12.7293 6.01152C12.6474 6.00899 12.5656 6.00551 12.484 6.00013C12.4434 5.9976 12.4031 5.98843 12.3625 5.98495C12.2559 5.97641 12.149 5.97198 12.0427 5.96091C11.9913 5.95553 11.9409 5.93813 11.8901 5.92674C11.8603 5.9201 11.8301 5.91504 11.7933 5.90808C11.8305 5.97957 11.8628 6.04094 11.8949 6.10262C11.898 6.10863 11.9018 6.11432 11.9047 6.12065C11.9332 6.18518 11.9069 6.22409 11.8368 6.22061C11.8257 6.21998 11.8136 6.21808 11.8035 6.21365C11.6801 6.16114 11.557 6.108 11.4339 6.05486C11.3184 6.00488 11.2381 5.90903 11.1449 5.82995C11.1207 5.80939 11.0998 5.7844 11.0735 5.76731C11.0611 5.75909 11.0398 5.76383 11.0227 5.76289C11.0221 5.77933 11.016 5.79768 11.0214 5.81223C11.0392 5.86095 11.0627 5.90776 11.0801 5.95648C11.0874 5.97672 11.0909 6.0014 11.0865 6.02196C11.0373 6.25066 10.9865 6.47905 10.9358 6.70744C10.9259 6.75172 10.9158 6.79601 10.9025 6.83935C10.8768 6.92349 10.8028 6.95544 10.7302 6.98011C10.6718 7.00004 10.6249 6.95892 10.595 6.90419C10.5351 6.79411 10.5332 6.67264 10.5217 6.55465C10.5151 6.48506 10.5408 6.41136 10.5842 6.35062C10.6312 6.28514 10.6455 6.21587 10.6239 6.13805C10.6172 6.11401 10.6172 6.08839 10.6119 6.06403C10.608 6.04758 10.6001 6.0324 10.5896 6.00551C10.5608 6.04853 10.5363 6.08048 10.5167 6.11496C10.4418 6.24655 10.3368 6.35473 10.2426 6.47146C10.1671 6.56541 10.0842 6.65335 10.0049 6.74413C9.89547 6.86908 9.76127 6.96145 9.61375 7.03578C9.57758 7.05381 9.54173 7.07944 9.50366 7.0845C9.39325 7.09905 9.30315 7.05033 9.23462 6.96841C9.15276 6.87034 9.10391 6.7552 9.09439 6.62677C9.07821 6.41199 9.12675 6.21175 9.24033 6.02892C9.3482 5.85557 9.46051 5.68475 9.5706 5.51267C9.57885 5.4997 9.58583 5.48547 9.59788 5.46332C9.54395 5.45984 9.49699 5.45257 9.45036 5.45478C9.4034 5.457 9.3777 5.49717 9.34851 5.52786C9.32504 5.55253 9.30664 5.58353 9.27903 5.60219C9.24414 5.62592 9.20384 5.64774 9.16323 5.65533C9.12389 5.66261 9.09851 5.68064 9.07186 5.70721C9.02522 5.7534 8.97764 5.7999 8.92497 5.83849C8.84661 5.89574 8.74381 5.89131 8.66989 5.83532C8.61945 5.79737 8.60454 5.7515 8.62262 5.6914C8.65117 5.59713 8.70606 5.52248 8.78569 5.46427C8.82218 5.43739 8.85485 5.40544 8.88975 5.37633C8.94369 5.33142 8.99699 5.28587 9.05219 5.24253C9.07154 5.22734 9.09439 5.21564 9.11723 5.20583C9.17592 5.17958 9.22764 5.14447 9.27427 5.09923C9.31806 5.05684 9.36692 5.0192 9.41609 4.98282C9.46336 4.94771 9.46654 4.9145 9.41736 4.88286C9.39483 4.86831 9.36882 4.85851 9.34344 4.8487C9.26095 4.81644 9.17117 4.79619 9.09661 4.75096C8.99858 4.69117 8.90403 4.62158 8.83423 4.52605C8.8079 4.48999 8.76824 4.46152 8.76888 4.40553C8.8447 4.34353 8.93829 4.34985 9.03094 4.35492C9.08011 4.35776 9.12897 4.3663 9.19655 4.37453C9.17434 4.34321 9.1645 4.32328 9.14927 4.30905C9.06869 4.23218 9.02395 4.13096 8.96241 4.04112C8.9329 3.9981 8.90784 3.95191 8.87801 3.90921C8.81298 3.81684 8.78062 3.70898 8.73874 3.60649C8.68988 3.4866 8.64768 3.36418 8.60771 3.24081C8.57947 3.15351 8.56995 3.0643 8.59597 2.97257C8.62135 2.88368 8.70225 2.83497 8.79267 2.86312C8.84914 2.88083 8.90435 2.90234 8.9605 2.92132C9.11564 2.97415 9.27079 3.02698 9.42624 3.07854C9.53982 3.11618 9.64642 3.16553 9.73779 3.24461C9.75842 3.26232 9.77999 3.2794 9.80283 3.29427C10.044 3.45244 10.2232 3.66817 10.3787 3.90668C10.4094 3.95413 10.4456 3.99842 10.4802 4.04333C10.5046 4.07528 10.5373 4.09268 10.5766 4.10312C10.6531 4.12336 10.7089 4.09996 10.728 4.02214C10.7464 3.9478 10.7606 3.8703 10.7603 3.79407C10.76 3.63717 10.8799 3.5429 11.0319 3.59004C11.0446 3.59415 11.0573 3.59795 11.0754 3.60332L11.0744 3.60364Z" fill="#111111"></path>
</svg>