<svg width="200" height="210" viewBox="0 0 200 210" xmlns="http://www.w3.org/2000/svg">
  <title>Smith & Willis</title>
  <path d="M199.994 90.9753C199.994 93.9176 200.01 96.235 199.99 98.5565C199.969 101.205 199.886 103.849 199.882 106.494C199.878 109.469 199.948 112.444 199.952 115.42C199.952 116.309 199.849 117.199 199.754 118.085C199.654 119.032 199.539 119.976 199.39 120.915C199.133 122.558 198.852 124.197 198.566 125.836C198.429 126.626 198.227 127.408 198.111 128.198C197.705 130.979 196.654 133.586 195.967 136.293C195.413 138.461 194.689 140.568 193.724 142.583C192.334 145.484 190.749 148.265 188.792 150.839C187.898 152.014 187.219 153.359 186.495 154.654C185.56 156.322 184.624 158.006 183.147 159.247C181.421 160.696 180.263 162.525 179.199 164.461C178.802 165.186 178.268 165.839 177.796 166.522C176.009 169.125 173.969 171.53 171.85 173.859C169.872 176.036 167.861 178.184 165.862 180.344C165.68 180.538 165.481 180.72 165.299 180.915C164.488 181.784 163.702 182.674 162.858 183.514C162.166 184.201 161.417 184.834 160.677 185.475C159.688 186.332 158.711 187.209 157.685 188.02C155.165 190.007 152.632 191.98 149.785 193.507C148.03 194.447 146.309 195.461 144.637 196.537C143.524 197.253 142.39 197.911 141.128 198.246C139.663 198.631 138.368 199.346 137.077 200.071C136.133 200.6 135.161 201.031 134.109 201.258C131.945 201.722 129.926 202.607 127.848 203.332C125.576 204.122 123.296 204.904 120.975 205.529C118.136 206.295 115.26 206.924 112.388 207.553C111.258 207.801 110.095 207.884 108.945 208.037C107.149 208.277 105.353 208.525 103.553 208.748C102.609 208.868 101.662 208.989 100.714 209.034C98.0988 209.154 95.4835 209.291 92.8681 209.311C90.6418 209.328 88.4154 209.191 86.185 209.133C84.4717 209.092 82.8372 208.628 81.186 208.248C79.0714 207.759 76.9609 207.255 74.867 206.679C73.5841 206.324 72.3427 205.814 71.0805 205.38C70.7164 205.256 70.3481 205.119 69.9673 205.061C69.1066 204.937 68.2707 204.751 67.5299 204.263C67.4306 204.201 67.3148 204.151 67.203 204.126C65.4443 203.791 63.9918 202.769 62.4069 202.032C61.2275 201.482 59.9943 201.035 58.7901 200.547C58.7611 200.534 58.728 200.534 58.7073 200.518C57.4865 199.653 56.0051 199.326 54.7181 198.589C53.2987 197.778 51.8503 197.021 50.4309 196.218C48.8543 195.328 47.261 194.501 45.9037 193.243C44.2691 191.732 42.4607 190.412 40.7558 188.98C40.1889 188.504 39.6757 187.958 39.1667 187.42C38.5957 186.812 38.0908 186.146 37.499 185.562C36.7004 184.768 35.8231 184.052 35.0203 183.265C33.8988 182.161 32.8022 181.031 31.7138 179.889C31.0145 179.156 30.3772 178.366 29.6737 177.646C29.2599 177.224 28.7633 176.888 28.3081 176.512C25.7507 174.397 23.814 171.774 22.138 168.943C19.9572 165.26 17.7846 161.573 15.6369 157.873C14.9169 156.636 14.3541 155.324 14.0437 153.917C14.0065 153.744 13.9734 153.561 13.8989 153.404C13.0919 151.617 12.3098 149.816 11.4573 148.054C10.22 145.484 8.91235 142.951 7.77848 140.327C6.92601 138.349 6.23493 136.342 5.668 134.277C5.34936 133.106 5.02244 131.948 4.62517 130.793C4.16583 129.461 4.08307 128 3.77271 126.609C3.3713 124.818 3.28854 122.968 2.64711 121.213C1.87741 119.103 1.68291 116.864 1.46359 114.642C1.09529 110.942 0.755957 107.238 0.441454 103.535C0.321446 102.144 0.284202 100.746 0.251097 99.3469C0.160056 95.3908 0.118674 91.4388 0.0110804 87.4827C-0.0675454 84.677 0.292478 81.9002 0.453868 79.1111C0.561461 77.2406 0.702159 75.3702 0.863549 73.5038C0.946313 72.5272 1.12426 71.5589 1.22771 70.5823C1.30634 69.8457 1.32703 69.1008 1.3891 68.3601C1.46359 67.4745 1.4429 66.5599 1.66222 65.7075C2.15053 63.8411 2.75885 62.0079 3.32578 60.1623C3.65684 59.0822 4.0003 58.0104 4.3355 56.9345C4.41412 56.6779 4.45551 56.4048 4.57138 56.1689C5.15072 54.9978 5.75904 53.8433 6.33839 52.6721C6.7729 51.7949 7.18672 50.9093 7.58399 50.0154C8.28748 48.4429 8.94132 46.8497 9.66964 45.2896C10.2366 44.0771 10.8614 42.8977 11.4987 41.7183C11.7925 41.1721 12.1774 40.6714 12.5167 40.15C13.1664 39.1568 13.812 38.1595 14.4617 37.1663C15.6328 35.3786 16.6963 33.5164 18.2647 32.0184C18.604 31.6956 18.8316 31.2611 19.1213 30.8845C20.309 29.3617 21.1366 27.5781 22.5477 26.2249C23.065 25.7325 23.6112 25.2731 24.1492 24.8014C24.2609 24.7021 24.4182 24.6358 24.4844 24.5158C25.2334 23.1254 26.6445 22.5005 27.8363 21.6398C29.2268 20.6301 30.7372 19.7859 32.1318 18.7762C35.1072 16.6202 38.397 15.0187 41.5752 13.2144C43.3339 12.2171 45.0471 11.1412 46.7976 10.1315C47.2528 9.86661 47.7659 9.70108 48.2584 9.50245C48.5853 9.37003 48.9329 9.27485 49.2557 9.12173C51.2999 8.14926 53.4311 7.40438 55.6119 6.8002C58.1611 6.09257 60.6978 5.3477 63.2635 4.70628C67.443 3.66345 71.635 2.63304 75.9181 2.08679C78.1486 1.80126 80.3915 1.59021 82.622 1.30054C84.8897 1.00672 87.1533 0.65084 89.4169 0.332199C89.7686 0.282541 90.1287 0.299092 90.4845 0.294954C93.8448 0.294954 97.2091 0.299093 100.569 0.286679C101.037 0.286679 101.505 0.170808 101.976 0.12115C102.361 0.0756298 102.746 0.013556 103.127 0.013556C107.708 0.00527955 112.293 -0.0195493 116.874 0.0301091C118.115 0.0425237 119.353 0.319783 120.59 0.443929C122.394 0.62601 124.203 0.746018 125.999 0.961204C127.12 1.09363 128.229 1.32123 129.33 1.57779C129.992 1.73091 130.621 2.00817 131.262 2.23991C131.846 2.45096 132.413 2.72822 133.009 2.88133C134.498 3.26618 135.893 3.95726 137.478 4.05658C138.277 4.11038 139.059 4.52833 139.837 4.80973C140.333 4.98767 140.809 5.23183 141.306 5.42632C142.688 5.96843 144.054 6.58088 145.469 7.01125C147.919 7.76027 150.286 8.70791 152.673 9.62246C154.49 10.3177 156.187 11.2198 157.813 12.2792C158.608 12.7965 159.477 13.1937 160.296 13.6696C161.736 14.5014 163.205 15.2959 164.591 16.2063C166.404 17.3981 168.088 18.7513 169.628 20.3031C171.196 21.8839 172.901 23.3282 174.502 24.8759C176.447 26.7587 178.289 28.7409 180.023 30.8225C180.706 31.6418 181.479 32.3867 182.204 33.173C182.386 33.3674 182.593 33.5578 182.717 33.7854C183.619 35.4903 184.98 36.8353 186.205 38.2878C187.26 39.5416 188.229 40.8286 188.87 42.368C189.487 43.8371 190.29 45.2275 191.03 46.6428C192.934 50.2803 194.9 53.8805 196.162 57.8118C196.7 59.4919 197.06 61.1968 197.329 62.9349C197.581 64.5777 197.954 66.2041 198.223 67.8428C198.79 71.3106 199.187 74.7908 199.336 78.3042C199.427 80.4146 199.667 82.5127 199.77 84.6232C199.886 86.9406 199.923 89.2621 199.977 90.9629L199.994 90.9753ZM99.6879 14.4435C98.4671 14.4435 97.2464 14.4807 96.0297 14.4352C92.2391 14.3028 88.4817 14.6462 84.749 15.267C84.0745 15.3787 83.4041 15.5153 82.7295 15.6146C80.9956 15.8629 79.2452 16.016 77.532 16.3594C75.947 16.6781 74.3662 16.856 72.7606 16.9305C72.0282 16.9636 71.2916 17.1209 70.5757 17.2905C69.5949 17.5264 68.6307 17.8202 67.6624 18.1099C67.381 18.1927 67.1285 18.3541 66.8554 18.4699C66.5368 18.6023 66.2223 18.772 65.8871 18.8382C64.0497 19.2065 62.2206 19.6038 60.5198 20.4397C60.0936 20.6466 59.6467 20.8163 59.1915 20.9528C57.4865 21.4701 55.7733 21.9708 54.0642 22.4716C52.5207 22.9268 51.0599 23.5227 49.7398 24.4827C47.3066 26.2415 44.7533 27.8264 42.0842 29.2086C41.8235 29.341 41.5834 29.5355 41.3724 29.7382C40.5365 30.5369 39.7502 31.3894 38.8812 32.1508C37.7184 33.1688 36.4686 34.0916 35.3058 35.1055C34.4368 35.8669 33.6174 36.6904 32.8187 37.5305C32.3718 37.9981 32.0159 38.5526 31.6187 39.0699C31.42 39.3306 31.209 39.5789 31.0186 39.8437C30.1744 41.0231 29.3385 42.2066 28.4943 43.386C27.977 44.1102 27.3935 44.793 26.9549 45.5586C26.3797 46.56 25.9203 47.6235 25.4072 48.6581C25.3286 48.8195 25.2251 48.9643 25.1424 49.1216C24.7368 49.912 24.3354 50.7024 23.9299 51.4969C23.8223 51.7079 23.723 51.9231 23.6154 52.1342C23.1478 53.028 22.676 53.9177 22.2125 54.8116C21.8691 55.4696 21.5214 56.1234 21.1987 56.7855C21.0331 57.129 20.8552 57.4849 20.7766 57.8573C20.429 59.5457 20.1848 61.2506 20.1434 62.9804C20.1351 63.3239 20.0027 63.6673 19.9034 64.0025C19.7875 64.3998 19.6179 64.7847 19.5227 65.1861C19.3406 65.9351 19.2661 66.7172 19.022 67.4455C18.3557 69.4319 17.9378 71.4472 17.7888 73.5452C17.615 75.9454 17.2963 78.3331 17.0191 80.725C16.9198 81.5816 16.7501 82.4258 16.6384 83.2783C16.5308 84.1018 16.3901 84.9294 16.3818 85.757C16.3528 89.5352 16.3652 93.3134 16.3694 97.0916C16.3694 97.3606 16.3446 97.642 16.4232 97.8903C16.7129 98.8214 16.6342 99.7731 16.6384 100.721C16.6425 102.148 16.5887 103.58 16.6549 105.004C16.7253 106.601 16.6715 108.199 16.9446 109.8C17.2922 111.844 17.5281 113.934 17.5322 116.007C17.5322 118.432 18.2067 120.696 18.7488 122.997C19.2247 125.016 19.8331 127.011 20.4041 129.005C20.5159 129.399 20.7104 129.775 20.9049 130.139C21.24 130.768 21.6539 131.36 21.9518 132.001C22.5891 133.375 23.2015 134.762 23.7726 136.16C24.8858 138.887 26.2017 141.507 27.7619 144.01C28.3909 145.016 28.9743 146.059 29.4833 147.135C30.5386 149.369 31.689 151.546 33.1001 153.582C33.3029 153.876 33.485 154.182 33.6505 154.497C34.5444 156.181 35.5955 157.753 36.928 159.136C37.1887 159.409 37.3583 159.769 37.5611 160.096C37.9832 160.774 38.397 161.453 38.8191 162.132C38.9267 162.305 39.0467 162.471 39.1502 162.645C39.4688 163.179 39.713 163.779 40.1102 164.242C41.4883 165.839 42.9201 167.387 44.3312 168.956C44.8278 169.506 45.3244 170.06 45.8168 170.615C46.5493 171.434 47.2362 172.299 48.0183 173.069C49.5246 174.546 51.0847 175.97 52.6324 177.406C52.9345 177.687 53.2904 177.911 53.6132 178.171C54.4243 178.821 55.2974 179.413 56.0216 180.149C57.7969 181.954 59.8784 183.307 62.0592 184.536C62.7296 184.917 63.4373 185.235 64.1201 185.595C64.956 186.034 65.7919 186.485 66.6237 186.936C68.0017 187.685 69.2225 188.74 70.7784 189.15C71.4074 189.316 72.0861 189.328 72.682 189.564C74.0724 190.118 75.5167 190.437 76.965 190.764C78.2686 191.058 79.5514 191.443 80.8632 191.695C82.8413 192.08 84.7945 192.614 86.8264 192.738C87.563 192.783 88.283 193.044 89.0196 193.123C91.2956 193.359 93.5716 193.615 95.8559 193.739C97.983 193.855 100.127 194.091 102.237 193.528C102.465 193.466 102.709 193.462 102.945 193.466C103.872 193.487 104.774 193.437 105.672 193.131C106.259 192.928 106.888 192.862 107.501 192.742C109.276 192.394 111.056 192.096 112.823 191.707C114.962 191.236 116.874 190.176 118.96 189.568C120.863 189.013 122.7 188.223 124.575 187.557C125.75 187.139 126.963 186.812 128.117 186.344C130.311 185.45 132.376 184.275 134.672 183.592C136.886 182.93 138.802 181.602 140.627 180.253C142.133 179.14 143.702 178.122 145.187 176.984C146.106 176.28 147.008 175.552 147.923 174.836C148.717 174.211 149.479 173.541 150.319 172.982C151.742 172.034 153 170.909 154.13 169.643C155.177 168.467 156.104 167.18 157.188 166.042C158.438 164.73 159.373 163.158 160.693 161.904C161.194 161.428 161.459 160.708 161.881 160.137C163.118 158.465 164.38 156.81 165.638 155.151C165.998 154.679 166.425 154.253 166.747 153.756C168.188 151.534 169.586 149.291 171.022 147.069C171.829 145.823 172.711 144.623 173.501 143.365C174.544 141.706 175.554 140.021 176.534 138.32C177.176 137.216 177.738 136.069 178.343 134.948C178.934 133.847 179.472 132.713 180.151 131.67C180.776 130.706 181.244 129.692 181.513 128.592C182.017 126.514 182.481 124.429 182.961 122.347C183.114 121.681 183.296 121.023 183.42 120.348C183.751 118.598 184.082 116.847 184.372 115.093C184.463 114.538 184.302 113.93 184.463 113.409C184.819 112.237 184.773 111.062 184.761 109.874C184.707 105.591 184.695 101.308 184.624 97.0254C184.6 95.4818 184.521 93.9341 184.376 92.3947C184.173 90.2304 183.954 88.0744 184.157 85.8978C184.182 85.637 184.136 85.3639 184.111 85.0991C184.053 84.4825 183.991 83.8659 183.917 83.2493C183.822 82.4258 183.747 81.5982 183.606 80.7829C183.445 79.8477 183.118 78.929 183.052 77.9896C182.733 73.6528 181.554 69.5146 180.312 65.3806C179.766 63.5597 179.166 61.7514 178.715 59.9099C178.293 58.1884 177.656 56.5745 176.824 55.0226C176.389 54.2116 175.885 53.4294 175.533 52.5811C174.548 50.2058 173.352 47.9753 171.722 45.9641C170.753 44.7682 169.913 43.4605 169.069 42.1694C168.365 41.0935 167.604 40.0755 166.685 39.1775C166.371 38.8713 166.147 38.474 165.883 38.114C165.287 37.2987 164.728 36.4545 164.091 35.6766C162.365 33.5702 160.164 31.9563 158.128 30.181C156.39 28.6665 154.391 27.4415 152.495 26.109C151.887 25.6828 151.25 25.298 150.592 24.9586C149.321 24.3089 148.022 23.713 146.748 23.0757C145.233 22.3226 143.722 21.557 142.22 20.7749C141.509 20.4066 140.846 19.9266 140.11 19.6203C138.686 19.0327 137.238 18.4989 135.773 18.0106C133.77 17.3443 131.73 16.794 129.619 16.5622C128.382 16.4257 127.145 16.2725 125.908 16.1112C125.142 16.0118 124.385 15.8422 123.615 15.7635C122.638 15.6601 121.662 15.6146 120.681 15.5484C119.435 15.4615 118.194 15.3787 116.948 15.2959C115.405 15.1925 113.861 15.1304 112.322 14.969C109.839 14.7124 107.373 14.3235 104.861 14.4228C103.139 14.489 101.409 14.4352 99.6838 14.4352L99.6879 14.4435Z" />
  <path d="M128.767 121.234C128.664 122.86 128.585 125.24 128.345 127.603C127.977 131.24 127.464 134.857 127.278 138.515C127.17 140.617 126.765 142.703 126.496 144.797C126.442 145.211 126.384 145.625 126.376 146.038C126.367 146.576 126.645 146.887 127.137 146.974C127.778 147.09 128.532 146.75 128.892 146.179C129.401 145.376 129.885 144.557 130.423 143.771C130.878 143.113 131.341 142.442 131.892 141.867C133.369 140.328 134.358 138.445 135.62 136.756C136.419 135.685 137.151 134.563 137.979 133.516C139.552 131.534 141.149 129.573 142.382 127.354C143.292 125.72 144.124 124.04 145.01 122.389C145.866 120.791 146.752 119.21 147.625 117.626C147.667 117.547 147.737 117.481 147.762 117.398C148.469 115.155 149.926 113.247 150.576 110.959C151.213 108.704 152.041 106.506 152.777 104.28C153.001 103.605 153.158 102.91 153.419 102.252C153.671 101.623 153.965 100.998 154.333 100.427C155.182 99.1154 156.551 98.6478 157.987 98.4988C159.556 98.3333 161.153 98.3788 162.659 98.9209C164.443 99.5623 166.247 100.204 167.82 101.309C168.842 102.029 169.529 103.034 170.017 104.172C170.253 104.723 170.166 105.277 169.996 105.832C169.189 108.509 168.42 111.195 167.571 113.86C167.075 115.416 166.433 116.922 165.912 118.47C165.399 119.988 164.985 121.536 164.48 123.059C164.033 124.408 163.561 125.757 163.023 127.073C161.658 130.413 159.498 133.334 158.012 136.616C156.638 139.653 154.71 142.318 152.496 144.793C151.705 145.678 150.994 146.638 150.282 147.586C148.064 150.528 145.585 153.272 143.545 156.355C142.875 157.365 142.034 158.271 141.223 159.177C139.953 160.597 138.712 162.033 137.76 163.696C137.557 164.052 137.263 164.367 136.973 164.66C134.598 167.036 132.219 169.407 129.827 171.766C129.558 172.035 129.235 172.279 128.892 172.436C127.274 173.189 125.995 174.393 124.658 175.527C123.595 176.429 122.448 177.232 121.372 178.122C120.412 178.912 119.49 179.752 118.558 180.584C117.603 181.441 116.634 182.277 115.31 182.508C115.223 182.525 115.128 182.541 115.058 182.591C113.891 183.365 112.575 183.311 111.263 183.29C110.907 183.286 110.543 183.286 110.195 183.357C109.57 183.481 109.103 183.286 108.685 182.827C108.043 182.115 107.642 181.346 107.687 180.34C107.745 179.152 107.634 177.956 107.716 176.773C107.878 174.344 108.118 171.919 108.329 169.494C108.424 168.397 108.573 167.305 108.606 166.208C108.652 164.66 108.813 163.133 109.02 161.598C109.26 159.835 109.334 158.043 109.388 156.264C109.463 153.769 109.401 151.265 109.492 148.77C109.55 147.23 109.761 145.695 109.947 144.16C110.059 143.233 109.595 142.773 108.705 143.051C108.403 143.146 108.093 143.303 107.853 143.51C106.169 144.975 104.642 146.568 103.529 148.542C103.082 149.337 102.494 150.065 101.911 150.777C100.557 152.42 99.7173 154.377 98.5172 156.111C97.9089 156.988 97.255 157.832 96.6053 158.681C94.3252 161.656 92.2313 164.76 90.3277 167.992C89.9966 168.554 89.6614 169.117 89.2807 169.647C87.9896 171.447 87.1661 173.483 86.3012 175.498C85.7591 176.752 85.3122 178.047 84.7784 179.305C84.2487 180.555 83.5452 181.706 82.3327 182.397C81.0126 183.146 79.6677 183.849 78.0372 183.386C77.073 183.113 76.0633 182.993 75.095 182.724C73.6383 182.318 72.819 181.197 72.1237 179.943C71.023 177.973 71.0478 175.825 71.172 173.686C71.2175 172.899 71.5278 172.126 71.7554 171.356C72.2024 169.85 72.6452 168.335 73.1542 166.849C73.4024 166.125 73.7459 165.418 74.1515 164.768C75.1281 163.208 75.6536 161.478 76.2081 159.748C76.444 159.016 76.7047 158.292 76.9696 157.567C77.3379 156.562 77.7062 155.56 78.0952 154.567C78.5173 153.491 78.9932 152.436 79.3904 151.348C79.9822 149.73 80.7395 148.132 81.0333 146.461C81.3809 144.462 82.0306 142.542 82.3534 140.551C82.6761 138.561 83.1893 136.607 83.2555 134.571C83.3507 131.72 83.6031 128.877 83.7148 126.026C83.7893 124.156 83.7231 122.281 83.7355 120.406C83.748 118.383 83.7562 116.359 83.81 114.34C83.8224 113.781 83.8928 113.189 84.0997 112.685C84.5383 111.617 84.5963 110.487 84.799 109.382C84.8984 108.828 85.0142 108.277 85.1756 107.739C85.4281 106.891 85.7922 106.084 86.0322 105.223C86.3012 104.238 86.9013 103.345 87.6834 102.616C89.0159 101.379 90.3235 100.117 92.1857 99.6947C93.4396 99.4092 94.6769 99.5706 95.8936 99.8437C96.295 99.9347 96.6136 100.349 96.9902 100.576C98.931 101.747 99.7752 103.672 100.504 105.674C100.735 106.316 100.926 106.974 101.161 107.611C101.6 108.795 101.84 109.991 101.675 111.273C101.563 112.155 101.6 113.057 101.617 113.947C101.646 115.788 101.737 117.63 101.745 119.471C101.753 120.717 101.666 121.962 101.621 123.208C101.613 123.415 101.596 123.626 101.6 123.833C101.625 125.43 103.04 126.332 104.451 125.546C105.296 125.078 106.049 124.416 106.765 123.758C107.592 122.997 108.308 122.14 108.838 121.106C109.21 120.382 109.906 119.831 110.365 119.144C111.238 117.837 112.028 116.475 112.881 115.151C113.779 113.752 114.557 112.279 115.645 111C117.478 108.844 119.792 108.029 122.56 108.397C122.738 108.422 122.912 108.459 123.09 108.484C123.988 108.596 124.807 108.857 125.527 109.461C126.16 109.995 126.967 110.326 127.427 111.054C127.658 111.422 127.886 111.828 127.981 112.246C128.147 112.966 128.25 113.711 128.308 114.447C128.465 116.463 128.581 118.482 128.763 121.255L128.767 121.234Z" />
  <path d="M31.7227 79.8806C33.4194 79.8806 35.1119 79.8764 36.8086 79.8806C37.6403 79.8806 38.2197 80.2944 38.5507 81.0434C38.7163 81.4241 38.8321 81.8255 38.9646 82.2228C39.8832 84.9623 41.0212 87.6107 42.5731 90.0523C43.4131 91.3765 44.278 92.709 45.656 93.5863C46.0533 93.8387 46.4381 94.1532 46.7361 94.5132C47.8162 95.8168 49.3473 96.1065 50.866 96.3299C53.0841 96.6568 55.2401 96.214 57.3713 95.6181C57.7147 95.523 58.083 95.5064 58.4141 95.3823C60.9384 94.4553 62.8502 92.7876 64.2076 90.4826C64.3897 90.1681 64.4559 89.7502 64.4641 89.3777C64.4931 87.859 64.5428 86.3403 64.4724 84.8257C64.3814 82.8518 63.5331 81.1593 61.944 80.0254C61.0253 79.3716 59.8376 79.0943 58.77 78.6515C57.5906 78.1674 56.3988 77.7163 55.236 77.199C53.9076 76.6114 52.5751 76.0196 51.2964 75.3285C50.1543 74.712 48.9211 74.2402 47.9651 73.2925C46.9554 72.287 45.8257 71.389 44.8905 70.3213C43.5993 68.8481 42.4365 67.2632 41.2199 65.7238C41.1454 65.6327 41.0916 65.521 41.0378 65.4176C40.2267 63.7995 39.3494 62.2063 38.6335 60.5469C38.29 59.7482 38.2611 58.8213 38.0542 57.9605C37.5162 55.7259 37.5907 53.4582 37.8969 51.2235C38.1328 49.4979 38.4307 47.7474 39.3577 46.2039C39.4487 46.0508 39.5191 45.8811 39.6308 45.7446C41.0668 44.0396 42.1675 42.074 43.7856 40.5139C43.8725 40.4311 43.9428 40.3277 44.038 40.2614C45.4864 39.2931 46.4754 37.8406 47.7665 36.7109C48.6811 35.9081 49.6618 35.1797 50.5888 34.3893C52.5751 32.6968 54.8635 31.505 57.1933 30.3918C58.6624 29.6883 60.1397 28.9724 61.675 28.4386C62.7261 28.0744 63.8889 27.8386 64.9897 27.8717C66.3015 27.913 67.5968 27.7889 68.8962 27.7641C71.2342 27.7144 73.4896 28.0993 75.7656 28.6372C77.7519 29.109 79.3741 29.9863 80.8349 31.3809C81.5632 32.0761 82.5605 32.5396 83.504 32.9575C85.3124 33.7645 86.649 35.0597 87.7167 36.6819C87.9112 36.9798 88.1098 37.2819 88.3498 37.5426C89.703 39.0034 91.0686 40.4518 92.4301 41.9084C93.4398 42.9885 94.0605 44.3127 94.6937 45.6245C94.913 46.0798 95.1034 46.5515 95.2523 47.0315C95.5875 48.1282 95.4013 49.1048 94.4578 49.8331C93.1874 50.8139 91.9211 51.8029 90.6051 52.7216C89.9803 53.1602 89.2395 53.4292 88.5733 53.814C88.0891 54.0913 87.5843 54.3686 87.1953 54.7534C86.3676 55.5645 85.4034 56.1273 84.3399 56.5328C83.3426 56.9094 82.4777 56.657 81.7784 55.8749C80.7066 54.6748 79.6679 53.454 78.832 52.0719C78.803 52.0222 78.7699 51.9684 78.7285 51.927C76.7174 49.9614 75.029 47.6481 72.5709 46.1667C72.1488 45.9142 71.6481 45.7073 71.1639 45.6494C69.5997 45.4756 68.0271 45.3721 66.4588 45.2604C64.4393 45.1197 62.5854 45.7528 60.7894 46.5598C59.4238 47.1722 58.592 48.3144 57.9134 49.6014C57.0857 51.1739 57.2802 52.8705 57.4499 54.4927C57.5616 55.5314 58.0748 56.5784 58.9686 57.3439C59.8252 58.0764 60.5742 58.933 61.4102 59.6903C62.8709 61.0104 64.551 62.0366 66.2105 63.0712C67.394 63.8078 68.6148 64.4989 69.8562 65.1279C70.8618 65.6369 71.946 65.9845 72.964 66.4769C74.6234 67.2756 76.2787 68.0826 77.8926 68.9723C78.9892 69.5765 79.9203 70.3999 80.5535 71.538C81.348 72.9656 82.2336 74.3395 83.024 75.7672C83.9468 77.4308 84.3441 79.2185 84.4723 81.1344C84.6255 83.4229 84.8779 85.6989 84.6544 87.9873C84.5551 89.0177 84.3441 90.0357 84.1868 91.0578C84.1537 91.2606 84.104 91.4634 84.0792 91.6703C83.7647 94.1243 82.875 96.4003 81.766 98.5687C80.9797 100.104 79.792 101.362 78.4264 102.471C77.5533 103.179 76.767 103.986 75.7821 104.553C74.4455 105.326 73.1088 106.096 71.7763 106.874C70.3776 107.689 68.8299 108.12 67.3195 108.662C66.6533 108.902 66.0284 109.262 65.3787 109.547C64.1165 110.094 62.8006 110.437 61.4391 110.636C60.8846 110.718 60.3342 110.892 59.8169 111.099C58.472 111.637 57.0982 111.906 55.6415 111.815C54.3959 111.736 53.142 111.782 51.8923 111.765C50.1708 111.741 48.4535 111.741 46.7485 111.397C45.7926 111.203 44.7994 111.178 43.8311 111.037C42.3744 110.826 41.013 110.354 39.7963 109.494C39.486 109.274 39.1301 109.076 38.7659 108.976C37.9135 108.753 37.1644 108.364 36.4692 107.834C36.163 107.602 35.8237 107.387 35.4636 107.263C33.7587 106.663 32.4469 105.525 31.2137 104.263C30.7585 103.795 30.2537 103.381 29.7902 102.922C29.4757 102.612 29.1612 102.285 28.9005 101.929C27.121 99.5163 26.0658 96.8058 25.4658 93.876C25.1099 92.1338 24.4891 90.4454 24.0546 88.7198C23.6284 87.019 23.2311 85.3099 22.9332 83.5843C22.6725 82.0862 23.8353 80.4558 25.3333 80.0957C25.9334 79.9509 26.5582 79.9219 27.1748 79.8516C27.3528 79.8309 27.5307 79.8516 27.7087 79.8516C29.0494 79.8516 30.3861 79.8516 31.7269 79.8516V79.8723L31.7227 79.8806Z" />
  <path d="M140.101 47.1434C140.167 46.8455 140.262 46.593 140.27 46.3406C140.32 44.9212 140.477 43.5018 139.931 42.1155C139.65 41.4079 140.034 40.8409 140.796 40.8037C141.379 40.7789 141.988 40.8534 142.559 40.9899C143.059 41.1058 143.337 41.5362 143.399 42.0452C143.539 43.1914 143.684 44.3419 143.771 45.4923C143.846 46.4648 143.842 47.4414 143.871 48.4469C144.301 48.6539 144.673 48.8277 145.079 49.0222C145.34 48.8442 145.592 48.629 145.878 48.4842C146.271 48.2856 146.689 48.0083 147.102 47.9959C148.534 47.9545 149.916 47.6276 151.315 47.3876C152.097 47.2551 152.855 47.3958 153.541 47.8262C154.022 48.1283 154.324 48.749 154.237 49.2705C154.142 49.8539 153.74 50.1395 153.206 50.2305C152.565 50.3381 151.911 50.4664 151.265 50.4457C150.127 50.4085 149.213 50.9257 148.183 51.4596C148.381 51.7865 148.567 52.0472 148.704 52.3327C149.014 52.97 149.358 53.599 149.581 54.2653C149.854 55.0888 149.54 55.7426 148.7 56.0571C147.752 56.413 146.846 56.8103 145.993 57.3648C145.116 57.9358 144.756 59.0738 145.253 59.9925C145.422 60.307 145.58 60.6298 145.787 60.9153C145.915 61.0933 146.101 61.2671 146.304 61.3457C147.773 61.9168 149.246 62.4051 150.868 62.4299C152.122 62.4506 153.31 62.91 154.464 63.4065C155.909 64.0273 157.361 64.6315 158.768 65.3184C159.285 65.5708 159.707 66.0302 160.15 66.4233C161.325 67.4703 162.509 68.5089 163.647 69.5973C165.174 71.0622 166.482 72.7134 167.678 74.4597C167.942 74.8445 168.327 75.1466 168.638 75.5025C168.952 75.8584 169.283 76.206 169.544 76.5991C170.053 77.3688 169.863 78.1178 169.035 78.5358C168.704 78.7013 168.298 78.7965 167.926 78.7924C165.844 78.7675 163.767 78.7055 161.685 78.6434C160.618 78.6103 159.55 78.5648 158.487 78.4944C157.957 78.4613 157.431 78.3413 156.902 78.2958C155.511 78.184 154.117 78.1261 152.73 77.9813C152.06 77.9109 151.402 77.6833 150.74 77.5344C150.351 77.4474 149.958 77.3812 149.478 77.2902C149.962 78.2254 150.384 79.0282 150.802 79.8352C150.843 79.9138 150.893 79.9883 150.93 80.0711C151.303 80.9153 150.959 81.4243 150.045 81.3787C149.9 81.3705 149.743 81.3456 149.61 81.2877C148 80.6008 146.395 79.9055 144.789 79.2103C143.283 78.5565 142.236 77.3026 141.019 76.2681C140.705 75.9991 140.432 75.6722 140.088 75.4487C139.927 75.3411 139.65 75.4032 139.426 75.3908C139.418 75.606 139.339 75.846 139.41 76.0363C139.641 76.6736 139.948 77.2861 140.175 77.9233C140.27 78.1882 140.316 78.511 140.258 78.78C139.616 81.7719 138.954 84.7596 138.292 87.7474C138.164 88.3268 138.032 88.9061 137.858 89.4731C137.523 90.5738 136.558 90.9918 135.611 91.3146C134.849 91.5753 134.237 91.0373 133.848 90.3214C133.066 88.8813 133.041 87.2922 132.892 85.7487C132.805 84.8383 133.14 83.8741 133.707 83.0795C134.32 82.2229 134.506 81.3167 134.224 80.2987C134.137 79.9842 134.137 79.649 134.067 79.3303C134.017 79.1151 133.914 78.9165 133.777 78.5648C133.401 79.1276 133.082 79.5455 132.826 79.9966C131.849 81.7181 130.479 83.1333 129.25 84.6603C128.265 85.8894 127.185 87.0398 126.151 88.2275C124.723 89.862 122.973 91.0704 121.048 92.0429C120.577 92.2788 120.109 92.614 119.612 92.6802C118.172 92.8705 116.997 92.2332 116.103 91.1614C115.036 89.8786 114.398 88.3723 114.274 86.6922C114.063 83.8824 114.696 81.2629 116.178 78.871C117.585 76.6033 119.05 74.3686 120.486 72.1175C120.593 71.9478 120.684 71.7616 120.841 71.4719C120.138 71.4264 119.525 71.3312 118.917 71.3602C118.305 71.3891 117.97 71.9147 117.589 72.3161C117.283 72.6389 117.043 73.0444 116.683 73.2886C116.227 73.5989 115.702 73.8845 115.172 73.9838C114.659 74.079 114.328 74.3148 113.98 74.6624C113.372 75.2666 112.751 75.8749 112.064 76.3798C111.042 77.1288 109.701 77.0709 108.737 76.3384C108.079 75.8418 107.885 75.2418 108.121 74.4555C108.493 73.2224 109.209 72.2457 110.248 71.4843C110.724 71.1326 111.15 70.7146 111.605 70.3339C112.308 69.7463 113.004 69.1504 113.724 68.5834C113.976 68.3848 114.274 68.2317 114.572 68.1034C115.338 67.7599 116.012 67.3006 116.62 66.7088C117.192 66.1543 117.829 65.6619 118.47 65.186C119.087 64.7266 119.128 64.2921 118.487 63.8783C118.193 63.6879 117.854 63.5597 117.523 63.4314C116.447 63.0093 115.276 62.7444 114.303 62.1527C113.024 61.3705 111.791 60.4601 110.881 59.2104C110.537 58.7386 110.02 58.3662 110.028 57.6338C111.017 56.8227 112.238 56.9054 113.446 56.9716C114.088 57.0089 114.725 57.1206 115.607 57.2282C115.317 56.8185 115.189 56.5578 114.99 56.3716C113.939 55.366 113.355 54.0418 112.553 52.8665C112.168 52.3038 111.841 51.6996 111.452 51.1409C110.604 49.9326 110.181 48.5214 109.635 47.1807C108.998 45.6123 108.448 44.0108 107.926 42.3969C107.558 41.2548 107.434 40.0878 107.773 38.8877C108.104 37.7249 109.159 37.0876 110.339 37.4559C111.075 37.6876 111.795 37.969 112.528 38.2173C114.551 38.9084 116.575 39.5995 118.603 40.274C120.084 40.7665 121.475 41.412 122.666 42.4466C122.935 42.6783 123.217 42.9018 123.515 43.0963C126.66 45.1654 128.998 47.9876 131.026 51.1078C131.427 51.7285 131.899 52.3079 132.35 52.8955C132.668 53.3135 133.095 53.5411 133.608 53.6776C134.605 53.9425 135.333 53.6363 135.582 52.6183C135.822 51.6458 136.008 50.6319 136.004 49.6346C136 47.5821 137.564 46.3489 139.546 46.9655C139.712 47.0193 139.877 47.0689 140.113 47.1393L140.101 47.1434Z" />
</svg>
